<?xml version="1.0" standalone="no"?>
<!DOCTYPE svg PUBLIC "-//W3C//DTD SVG 1.1//EN" "http://www.w3.org/Graphics/SVG/1.1/DTD/svg11.dtd" >
<svg xmlns="http://www.w3.org/2000/svg">
<metadata>Generated by IcoMoon</metadata>
<defs>
<font id="heuft-menu" horiz-adv-x="1024">
<font-face units-per-em="1024" ascent="960" descent="-64" />
<missing-glyph horiz-adv-x="1024" />
<glyph unicode="&#x20;" horiz-adv-x="512" d="" />
<glyph unicode="&#xe900;" glyph-name="hs-portal" d="M335.97 222.257h-0.975c-7.266-0.39-14.336-3.998-18.822-10.435-2.926-4.242-4.34-9.070-4.34-13.897v-0.536l0.049-1.17 0.146-1.365 0.195-1.219 35.547-200.021c0.244-1.365 0.585-2.682 1.073-3.901l2.194-12.532c89.722-29.842 188.66-35.206 286.818-10.289 1.414 0.244 2.828 0.585 4.194 1.073 0.829 0.244 1.609 0.439 2.438 0.683 15.019 3.998 29.696 8.68 44.032 13.897l-39.448 27.453c-0.39 0.341-0.829 0.634-1.317 0.975l-297.643 206.946c-4.047 2.828-8.631 4.242-13.214 4.34h-0.926zM199.631 412.087l-0.195-0.049-0.975-0.195c-5.754-1.268-11.118-4.584-14.775-9.801l-109.032-155.697c-0.731-1.024-1.317-2.048-1.853-3.17l-13.556-19.31c53.346-101.035 138.191-179.346 238.543-225.621l-70.12 394.045c-1.073 5.949-4.194 11.020-8.533 14.58l-0.731 0.585-0.878 0.634c-2.682 1.853-5.608 3.121-8.631 3.755-2.974 0.683-6.095 0.78-9.265 0.244zM572.611 3.852c-61.245-8.192-121.954-3.755-179.151 11.459l-22.967 129.024 202.118-140.483zM908.532 223.72c-0.293-0.049-0.585-0.049-0.878-0.098l-323.925-57.295c-1.56-0.293-3.023-0.683-4.437-1.219-4.73-1.658-8.972-4.73-12.044-9.118-7.704-11.069-4.974-26.283 6.095-33.938l167.887-116.736c101.083 50.469 180.37 132.145 228.937 229.571l-61.489-10.874-0.146-0.293zM868.303 167.107c-34.328-41.35-76.020-77.044-123.758-104.692l-94.988 66.024 218.746 38.668zM231.034 94.842c-45.056 34.328-84.066 76.995-114.347 126.537l73.24 104.594 41.106-231.131zM960.463 600.405c-0.098-0.146-0.195-0.293-0.293-0.439l-220.16-313.588c-4.242-5.266-6.29-12.337-4.974-19.554 1.17-6.583 4.925-12.044 9.996-15.604l0.098-0.098c5.9-4.096 12.971-5.266 19.456-3.755l209.481 37.693c0.536 0.049 1.024 0.195 1.512 0.293l17.652 3.121c34.718 95.33 41.545 201.923 13.312 307.249-4.389 16.53-9.557 32.622-15.458 48.274l-30.622-43.593zM251.563 650.045c-1.853 0-3.755-0.195-5.559-0.634l-224.549-39.448c-26.429-87.966-29.55-184.125-4.047-279.259 5.071-19.066 11.215-37.547 18.286-55.491l29.111 41.545c0.244 0.341 0.488 0.683 0.731 1.073l204.41 291.84c4.681 5.315 6.973 12.678 5.608 20.187-2.048 11.849-12.386 20.187-23.991 20.187zM970.508 529.896c9.996-68.072 4.389-135.607-14.385-198.51l-143.019-25.746 157.403 224.256zM54.857 387.511c-10.191 61.196-7.753 122.1 5.608 179.785l137.167 24.088-142.775-203.874zM732.794 872.155c0.049-0.341 0.098-0.634 0.146-0.975l62.074-348.696c2.146-11.849 12.483-20.187 24.137-20.090 7.753-0.049 15.409 3.56 20.187 10.386l96.549 137.557 0.049-0.049 32.134 45.836c-53.687 105.374-141.507 186.709-245.565 233.765l10.289-57.734zM789.016 834.511c48.469-36.084 90.112-81.774 121.71-135.168l-77.873-110.982-43.837 246.15zM284.136 904.436l-14.385 9.996c-104.448-56.027-184.369-145.896-229.23-251.611l47.006 8.241c0.683 0.098 1.365 0.146 2.048 0.293l364.154 64.024c4.876 0.878 9.167 3.121 12.532 6.29l0.731 0.78 0.975 1.024 0.78 0.975 0.731 0.975 0.634 0.975c1.122 1.755 1.95 3.608 2.584 5.51l0.146 0.39c1.073 3.56 1.365 7.412 0.683 11.313-0.488 2.731-1.414 5.315-2.682 7.607-1.755 3.17-4.242 5.949-7.363 8.192l-176.079 123.075c-1.024 0.731-2.146 1.365-3.267 1.95zM371.224 955.538c-3.17-0.341-6.242-1.219-9.070-2.682-14.092-4.34-27.892-9.167-41.35-14.58l352.256-246.199c3.95-2.779 8.485-4.242 12.971-4.389l1.17-0.049 1.317 0.049c7.168 0.439 14.043 4.047 18.481 10.386 2.926 4.145 4.34 8.875 4.389 13.605v1.073l-0.098 1.414-0.146 1.219-0.146 0.926-39.010 219.136c0 0.146-0.049 0.341-0.098 0.488l-2.584 14.531c-90.795 29.403-190.854 33.841-289.841 7.314-2.779-0.731-5.51-1.463-8.241-2.243zM267.508 856.893l119.71-83.675-255.122-44.861c35.499 50.956 81.335 94.939 135.412 128.536zM626.59 912.14l26.088-146.334-220.16 153.893c66.17 11.605 132.145 8.338 194.072-7.558z" />
<glyph unicode="&#xe901;" glyph-name="hs-employees" d="M368.006 375.905c-85.431-21.211-164.279-65.292-227.523-128.536-79.921-79.921-129.219-184.661-140.386-296.131h48.957c11.020 98.499 55.101 190.952 125.854 261.705 81.92 81.92 192.902 128.098 308.76 128.536v-0.049h28.282c81.14 0 162.28 30.964 224.11 92.794 123.709 123.709 123.709 324.559 0 448.219-123.709 123.709-324.51 123.709-448.219 0-123.709-123.66-123.709-324.51 0-448.219 24.137-24.186 51.298-43.593 80.165-58.319zM926.427-24.284c0-13.458-10.923-24.381-24.381-24.381h-243.81c-13.458 0-24.381 10.923-24.381 24.381s10.923 24.381 24.381 24.381h243.81c13.458 0 24.381-10.923 24.381-24.381zM1023.951 122.002c0-13.458-10.923-24.381-24.381-24.381h-341.333c-13.458 0-24.381 10.923-24.381 24.381s10.923 24.381 24.381 24.381h341.333c13.458 0 24.381-10.923 24.381-24.381zM1023.951 268.288c0-13.458-10.923-24.381-24.381-24.381h-341.333c-13.458 0-24.381 10.923-24.381 24.381s10.923 24.381 24.381 24.381h341.333c13.458 0 24.381-10.923 24.381-24.381zM511.951 390.144v0.049h-5.461c-66.804 1.365-133.266 27.502-184.222 78.458-104.692 104.692-104.692 274.676 0 379.368s274.676 104.692 379.368 0c104.692-104.692 104.692-274.676 0-379.368-52.322-52.322-121.027-78.507-189.684-78.507z" />
<glyph unicode="&#xe902;" glyph-name="hs-documents" d="M146.334 950.808v0.098c0 13.458 10.923 24.381 24.332 24.381h682.667c13.458 0 24.381-10.923 24.381-24.381v-374.004l142.629-247.077c0.683-1.122 1.317-2.292 1.804-3.511 0.585-1.365 1.024-2.779 1.317-4.242 0.39-1.853 0.585-3.755 0.536-5.656v-340.846c0-13.458-10.923-24.381-24.381-24.381-0.829 0-1.707 0.049-2.536 0.146h-970.118c-0.829-0.098-1.707-0.146-2.584-0.146-11.215 0-20.626 7.607-23.454 17.896-0.634 2.097-0.926 4.34-0.926 6.583 0 0.488 0 0.926 0.049 1.365v338.603c-0.049 0.488-0.049 0.926-0.049 1.365 0 5.022 1.512 9.655 4.096 13.507l142.238 246.394v373.906zM168.131 292.669h-119.369v-292.62h926.525v292.62h-119.369c-0.829-0.098-1.707-0.146-2.584-0.146-0.829 0-1.707 0.049-2.536 0.146h-70.607v-96.061c0-0.536 0-1.024-0.049-1.56h0.098c0-25.844-10.289-50.664-28.574-68.949s-43.106-28.574-68.998-28.574v0.098h-340.407c-0.293 0-0.585 0-0.878 0v-0.098c-25.893 0-50.712 10.289-68.998 28.574s-28.574 43.106-28.574 68.949h0.098c-0.049 0.536-0.049 1.024-0.049 1.56v96.061h-70.607c-0.829-0.098-1.707-0.146-2.584-0.146-0.829 0-1.707 0.049-2.536 0.146zM731.477 292.669h-438.906v-96.061c0-0.536 0-1.024-0.049-1.56h0.049c0-12.922 5.169-25.307 14.287-34.475 9.070-9.021 21.309-14.141 34.085-14.287 0.439 0.049 0.878 0.049 1.317 0.049h342.309c12.239 0.488 23.893 5.559 32.622 14.238 9.118 9.167 14.287 21.553 14.287 34.475h0.049c-0.049 0.536-0.049 1.024-0.049 1.56v96.061zM877.714 479.427v-138.045h79.726l-79.726 138.045zM66.609 341.382h79.726v138.045l-79.726-138.045zM195.048 926.574v-585.192h633.954v585.192h-633.954zM633.905 414.525c0 13.458-10.923 24.381-24.381 24.381h-292.571c-13.458 0-24.381-10.923-24.381-24.381 0-13.41 10.923-24.332 24.381-24.332h292.571c13.458 0 24.381 10.923 24.381 24.332zM731.429 609.572c0 13.458-10.923 24.381-24.381 24.381h-390.095c-13.458 0-24.381-10.923-24.381-24.381 0-13.41 10.923-24.332 24.381-24.332h390.095c13.458 0 24.381 10.923 24.381 24.332zM731.429 804.62c0 13.458-10.923 24.381-24.381 24.381h-390.095c-13.458 0-24.381-10.923-24.381-24.381 0-13.41 10.923-24.332 24.381-24.332h390.095c13.458 0 24.381 10.923 24.381 24.332z" />
<glyph unicode="&#xe903;" glyph-name="hs-chart" d="M48.762 268.19c0 13.458 10.923 24.381 24.381 24.381h146.286c13.458 0 24.381-10.923 24.381-24.381v-292.571c0-13.458-10.923-24.381-24.381-24.381h-146.286c-13.458 0-24.381 10.923-24.381 24.381v292.571zM463.287 390.095c13.458-0.049 24.332-10.923 24.332-24.381v-390.095c0-13.458-10.923-24.381-24.381-24.381h-146.286c-13.458 0-24.381 10.923-24.381 24.381v390.095c0 13.458 10.923 24.381 24.332 24.381h146.383zM707.145 536.381c13.41-0.049 24.283-10.971 24.283-24.381v-536.381c0-13.458-10.923-24.381-24.381-24.381h-146.286c-13.458 0-24.381 10.923-24.381 24.381v536.381c0 13.41 10.825 24.283 24.235 24.381h146.53zM780.19 707.048c0 13.458 10.923 24.381 24.381 24.381h146.286c13.458 0 24.381-10.923 24.381-24.381v-731.429c0-13.458-10.923-24.381-24.381-24.381h-146.286c-13.458 0-24.381 10.923-24.381 24.381v731.429zM926.476 0v682.667h-97.524v-682.667h97.524zM585.143 487.619v-487.619h97.524v487.619h-97.524zM341.333 341.333v-341.333h97.524v341.333h-97.524zM97.524 243.809v-243.81h97.524v243.81h-97.524zM790.967 833.097l-91.282-78.458c-17.359 15.848-40.472 25.551-65.78 25.551-53.833 0-97.524-43.691-97.524-97.524 0-13.166 2.633-25.698 7.363-37.157l-79.433-45.885c-17.896 20.968-44.52 34.28-74.216 34.28-53.833 0-97.524-43.691-97.524-97.524 0-2.633 0.098-5.266 0.293-7.851l-77.58-20.821c-17.652 17.701-42.033 28.672-68.998 28.672-53.833 0-97.524-43.691-97.524-97.524 0-9.899 1.463-19.456 4.242-28.477l-40.814-23.552c-11.654-6.729-15.653-21.65-8.923-33.304s21.65-15.653 33.304-8.923l41.935 24.186c17.554-16.969 41.448-27.453 67.779-27.453 53.833 0 97.524 43.691 97.524 97.524 0 8.68-1.17 17.115-3.267 25.112l68.413 18.334c17.457-26.185 47.299-43.447 81.14-43.447 53.833 0 97.524 43.691 97.524 97.524 0 6.632-0.683 13.068-1.95 19.261l87.284 50.42c0.146 0.049 0.244 0.146 0.39 0.195 16.628-13.214 37.693-21.114 60.562-21.114 53.833 0 97.524 43.691 97.524 97.524 0 10.728-1.755 21.016-4.974 30.671l96.987 83.383c15.506-10.435 34.182-16.53 54.272-16.53 53.833 0 97.524 43.691 97.524 97.524 0 9.899-1.512 19.407-4.242 28.428l40.814 23.552c11.654 6.729 15.653 21.65 8.923 33.304s-21.65 15.653-33.304 8.923l-41.886-24.186c-17.554 17.018-41.496 27.502-67.828 27.502-53.833 0-97.524-43.691-97.524-97.524 0-16.043 3.901-31.208 10.776-44.617zM146.286 487.619c26.917 0 48.762-21.845 48.762-48.762s-21.845-48.762-48.762-48.762c-26.917 0-48.762 21.845-48.762 48.762s21.845 48.762 48.762 48.762zM390.095 585.143c26.917 0 48.762-21.845 48.762-48.762s-21.845-48.762-48.762-48.762c-26.917 0-48.762 21.845-48.762 48.762s21.845 48.762 48.762 48.762zM633.905 731.428c26.917 0 48.762-21.845 48.762-48.762s-21.845-48.762-48.762-48.762c-26.917 0-48.762 21.845-48.762 48.762s21.845 48.762 48.762 48.762zM877.714 926.476c26.917 0 48.762-21.845 48.762-48.762s-21.845-48.762-48.762-48.762c-26.917 0-48.762 21.845-48.762 48.762s21.845 48.762 48.762 48.762z" />
<glyph unicode="&#xe904;" glyph-name="hs-device" d="M316.367 975.238c0.244 0 0.536 0 0.78 0h389.9c0.146 0 0.341 0 0.488 0 6.193-0.049 12.386-2.438 17.115-7.119l48.421-48.421c5.12-5.12 7.461-11.995 7.070-18.725 0.049-0.488 0.049-1.024 0.049-1.56v-167.985h219.429c10.533 0 19.505-6.68 22.918-16.043 0.926-2.633 1.463-5.413 1.463-8.338v-414.622c0-2.487-0.39-4.925-1.122-7.168-1.122-3.608-3.121-7.022-5.998-9.899l-73.143-73.192c-2.341-2.292-5.022-4.047-7.899-5.266h-0.049c-2.877-1.219-6.046-1.853-9.314-1.853h-146.286v-170.667c0-13.458-10.923-24.381-24.381-24.381h-73.143v-24.381c0-13.458-10.923-24.381-24.381-24.381s-24.381 10.923-24.381 24.381v24.381h-243.81v-24.381c0-13.458-10.923-24.381-24.381-24.381s-24.381 10.923-24.381 24.381v24.381h-73.143c-13.458 0-24.381 10.923-24.381 24.381v170.667h-146.286c-3.267 0-6.437 0.634-9.314 1.853h-0.049c-2.877 1.219-5.559 2.974-7.899 5.266l-73.143 73.192c-2.877 2.877-4.876 6.29-5.998 9.899-0.731 2.243-1.122 4.681-1.122 7.168v414.622c0 2.926 0.536 5.705 1.463 8.338 3.413 9.362 12.386 16.043 22.918 16.043h219.429v170.667c0 6.729 2.731 12.824 7.168 17.262 0.098 0.098 0.244 0.244 0.341 0.341l48.372 48.421c4.632 4.584 10.63 6.973 16.677 7.119zM292.571 195.048v-146.286h438.857v146.286h-438.857zM292.571 731.428v-487.619h438.857v487.619h-438.857zM780.19 682.667v-438.857h136.192l58.856 58.856v380.002h-195.048zM243.81 682.667h-195.048v-380.002l58.856-58.856h136.192v438.857zM292.571 892.001v-111.811h438.857v112.152l-34.133 34.133h-370.249l-34.475-34.475z" />
<glyph unicode="&#xe905;" glyph-name="hs-projects" d="M509.074 695.735l251.124 251.124c18.286 18.188 43.008 28.379 68.803 28.379 23.845 0 46.909-8.728 64.756-24.576l-0.146-0.195c1.999-1.073 3.901-2.487 5.559-4.194l98.060-98.060c1.17-1.122 2.194-2.389 3.072-3.657l0.098 0.098c15.262-17.701 23.65-40.326 23.65-63.683 0-25.844-10.289-50.664-28.574-68.949l-251.319-251.368 76.751-76.751c0.341-0.293 0.634-0.585 0.975-0.878 0.293-0.341 0.585-0.634 0.878-0.975l95.671-95.671c0.341-0.293 0.634-0.585 0.975-0.878 0.293-0.341 0.585-0.634 0.878-0.975l95.671-95.671c0.341-0.293 0.634-0.585 0.975-0.878 9.509-9.509 9.509-24.966 0-34.475l-195.048-195.096c-4.779-4.73-11.020-7.119-17.262-7.119-6.29 0-12.532 2.389-17.262 7.119l-272.725 272.725-272.774-272.725c-5.364-5.364-12.581-7.704-19.602-7.070-0.926-0.098-1.853-0.146-2.828-0.146h-194.95c-8.192 0-15.409 4.047-19.846 10.191-2.974 4.047-4.681 9.021-4.681 14.385v194.901c0 1.073 0.049 2.146 0.195 3.17-0.78 7.070 1.56 14.482 6.973 19.895l272.433 272.482-272.384 272.384c-9.509 9.509-9.509 24.966 0 34.475 0.146 0.146 0.293 0.244 0.439 0.39l194.219 194.267c0.146 0.098 0.293 0.244 0.39 0.39 4.779 4.73 11.020 7.119 17.262 7.119s12.483-2.389 17.262-7.119c0.098-0.146 0.244-0.293 0.39-0.39l96.158-96.207c0.341-0.293 0.634-0.585 0.975-0.878 0.293-0.341 0.585-0.634 0.878-0.975l96.207-96.207c0.146-0.146 0.293-0.244 0.439-0.39 0.098-0.146 0.244-0.293 0.39-0.39l76.898-76.946zM721.189 706.999l-65.877 65.877-606.501-606.501v-166.327h165.595l606.891 606.842-65.536 65.536-567.735-567.686c-9.509-9.557-25.015-9.557-34.523 0-9.557 9.509-9.557 25.015 0 34.523l567.686 567.735zM770.146 365.763l-60.465 60.416-160.573-160.573 255.512-255.464 160.573 160.573-63.049 63.049-87.43-87.43c-9.509-9.509-24.966-9.509-34.475 0s-9.509 24.966 0 34.475l87.43 87.43-63.049 63.049-38.619-38.619c-9.509-9.509-24.966-9.509-34.475 0s-9.509 24.966 0 34.475l38.619 38.619zM282.526 853.382l-63.049 63-160.573-160.573 255.122-255.122 160.573 160.573-60.075 60.075-38.619-38.619c-9.509-9.509-24.966-9.509-34.475 0s-9.509 24.966 0 34.475l38.619 38.619-63.049 63.098-87.43-87.43c-9.509-9.509-24.966-9.509-34.475 0s-9.509 24.966 0 34.475l87.43 87.43zM861.964 914.871l-0.585-0.683c-8.923 7.948-20.431 12.288-32.378 12.288-12.873 0-25.21-5.071-34.328-14.092l0.098-0.098-104.887-104.887 81.14-81.14c0.731-0.585 1.414-1.219 2.097-1.902s1.317-1.365 1.902-2.097l80.798-80.798 105.131 105.131 0.049-0.098c9.167 9.167 14.287 21.553 14.287 34.475 0 11.703-4.194 22.967-11.8 31.842l0.049 0.049-98.889 98.889c-0.975 0.975-1.853 2.048-2.682 3.121z" />
<glyph unicode="&#xe906;" glyph-name="hs-customer" d="M877.909-24.332c0 13.458-10.923 24.381-24.381 24.381h-682.667c-13.458 0-24.381-10.923-24.381-24.381 0-13.41 10.923-24.332 24.381-24.332h682.667c13.458 0 24.381 10.923 24.381 24.332zM512 975.14c8.972 0.098 17.652-4.827 21.943-13.41l230.156-458.216 218.307 208.603c0.195 0.195 0.39 0.39 0.585 0.585 2.682 2.438 5.803 4.194 9.070 5.218 3.56 1.122 7.461 1.463 11.362 0.78h0.098c4.974-0.878 9.752-3.267 13.507-7.217 3.706-3.852 5.851-8.631 6.534-13.556 0.195-1.365 0.244-2.731 0.195-4.145-0.049-1.219-0.195-2.438-0.439-3.657l-96.744-566.077c0.049-0.683 0.098-1.365 0.098-2.097 0-10.094-6.144-18.725-14.921-22.43-4.34-2.048-9.314-2.828-14.434-1.95-0.049 0-0.146 0-0.244 0.049h-579.925c-13.458 0-24.381 10.923-24.381 24.332 0 13.458 10.923 24.381 24.381 24.381h563.834l82.018 479.817-188.952-180.517c-4.73-4.535-10.825-6.778-16.872-6.778-8.972 0-17.603 4.925-21.894 13.458l-223.281 444.611-223.33-444.611c-4.291-8.533-12.922-13.458-21.845-13.458-6.095 0-12.19 2.243-16.92 6.778l-188.904 180.517 85.528-500.443c2.292-13.263-6.632-25.893-19.895-28.136-13.263-2.292-25.844 6.632-28.136 19.895l-97.865 572.66c-0.244 1.219-0.39 2.438-0.439 3.657-0.049 1.414 0.049 2.779 0.195 4.145 0.683 4.925 2.877 9.704 6.534 13.556 3.755 3.95 8.533 6.339 13.507 7.217h0.098c3.95 0.683 7.802 0.341 11.362-0.78 3.267-1.024 6.388-2.779 9.070-5.218 0.195-0.195 0.39-0.39 0.585-0.585l218.307-208.603 230.156 458.216c4.291 8.582 12.971 13.507 21.992 13.41z" />
<glyph unicode="&#xe907;" glyph-name="hs-admin" d="M445.976 431.787l34.523-34.523c9.509 9.557 9.509 24.966 0 34.523-9.557 9.509-24.966 9.509-34.523 0zM867.621 268.239l-80.311-80.262c-9.509-9.557-9.509-24.966 0-34.523 9.557-9.509 24.966-9.509 34.523 0l80.262 80.311 80.262-80.311c9.557-9.509 24.966-9.509 34.523 0 9.509 9.557 9.509 24.966 0 34.523l-80.311 80.262 80.311 80.262c9.509 9.557 9.509 24.966 0 34.523-9.557 9.509-24.966 9.509-34.523 0l-80.262-80.311-80.262 80.311c-9.557 9.509-24.966 9.509-34.523 0-9.509-9.557-9.509-24.966 0-34.523l80.311-80.262zM282.478 853.382l-80.311-80.262c-9.509-9.557-9.509-24.966 0-34.523 9.557-9.509 24.966-9.509 34.523 0l80.262 80.311 80.262-80.311c9.557-9.509 24.966-9.509 34.523 0 9.509 9.557 9.509 24.966 0 34.523l-80.311 80.262 80.311 80.262c9.509 9.557 9.509 24.966 0 34.523-9.557 9.509-24.966 9.509-34.523 0l-80.262-80.311-80.262 80.311c-9.557 9.509-24.966 9.509-34.523 0-9.509-9.557-9.509-24.966 0-34.523l80.311-80.262zM867.621 853.382l-80.311-80.262c-9.509-9.557-9.509-24.966 0-34.523 9.557-9.509 24.966-9.509 34.523 0l80.262 80.311 80.262-80.311c9.557-9.509 24.966-9.509 34.523 0 9.509 9.557 9.509 24.966 0 34.523l-80.311 80.262 80.311 80.262c9.509 9.557 9.509 24.966 0 34.523-9.557 9.509-24.966 9.509-34.523 0l-80.262-80.311-80.262 80.311c-9.557 9.509-24.966 9.509-34.523 0-9.509-9.557-9.509-24.966 0-34.523l80.311-80.262zM153.426 104.665c9.516-9.516 24.972-9.508 34.484 0.004l292.565 292.565c9.513 9.513 9.521 24.968 0.004 34.484s-24.972 9.508-34.484-0.004l-292.565-292.565c-9.513-9.513-9.521-24.968-0.004-34.484zM592.262 724.309c7.607 7.558 18.968 9.118 28.087 4.584 2.292-1.122 4.486-2.682 6.437-4.632l146.286-146.286c9.509-9.509 9.509-24.966 0-34.475-0.146-0.098-0.244-0.195-0.341-0.293l-584.802-584.85c-9.557-9.509-24.966-9.509-34.523 0-0.098 0.146-0.195 0.244-0.293 0.341l-145.652 145.652c-0.098 0.098-0.195 0.195-0.341 0.293-7.558 7.607-9.118 18.968-4.584 28.087 1.122 2.292 2.682 4.486 4.584 6.437l585.143 585.143zM58.856 121.905l111.811-111.811 404.382 404.382-111.811 111.811-404.382-404.382zM497.713 560.762l111.811-111.811 111.811 111.811-111.811 111.811-111.811-111.811z" />
<glyph unicode="&#xe908;" glyph-name="hs-portal-logout" d="M619.861 815.104v0c-12.971 3.462-20.724 16.774-17.31 29.647 3.462 12.873 16.823 20.529 29.842 17.067v0c78.36-21.114 149.797-62.415 207.189-119.808 180.809-180.809 180.809-474.356 0-655.165s-474.356-180.809-655.165 0c-180.809 180.809-180.809 474.356 0 655.165 57.393 57.393 128.829 98.694 207.189 119.808v0c13.019 3.462 26.38-4.194 29.794-17.067 3.462-12.873-4.242-26.136-17.213-29.647v0c-70.217-18.871-134.193-55.881-185.588-107.276-161.938-161.938-161.938-424.862 0-586.801s424.862-161.938 586.801 0c161.938 161.938 161.938 424.862 0 586.801-51.395 51.395-115.371 88.357-185.539 107.276zM536.332 950.906c0 13.458-10.923 24.381-24.381 24.381s-24.381-10.923-24.381-24.381v-487.668c0-13.458 10.923-24.381 24.381-24.381s24.381 10.923 24.381 24.381v487.668z" />
<glyph unicode="&#xe909;" glyph-name="hs-table-start" d="M682.667 0h292.571v804.571c0 13.458 10.923 24.381 24.381 24.381s24.381-10.923 24.381-24.381v-828.952c0-13.458-10.923-24.381-24.381-24.381h-975.238c-13.458 0-24.381 10.923-24.381 24.381v975.287c0 13.458 10.923 24.381 24.381 24.381 0.439 0 0.926 0 1.365-0.049h973.873c13.458 0 24.381-10.923 24.381-24.381s-10.923-24.381-24.381-24.381h-950.857v-926.476h292.571v146.286h-219.429c-13.458 0-24.381 10.923-24.381 24.381s10.923 24.381 24.381 24.381h219.429v146.286h-219.429c-13.458 0-24.381 10.923-24.381 24.381s10.923 24.381 24.381 24.381h219.429v146.286h-219.429c-13.458 0-24.381 10.923-24.381 24.381s10.923 24.381 24.381 24.381h219.429v146.286h-219.429c-13.458 0-24.381 10.923-24.381 24.381s10.923 24.381 24.381 24.381h780.19c13.458 0 24.381-10.923 24.381-24.381s-10.923-24.381-24.381-24.381h-219.429v-146.286h219.429c13.458 0 24.381-10.923 24.381-24.381s-10.923-24.381-24.381-24.381h-219.429v-146.286h219.429c13.458 0 24.381-10.923 24.381-24.381s-10.923-24.381-24.381-24.381h-219.429v-146.286h219.429c13.458 0 24.381-10.923 24.381-24.381s-10.923-24.381-24.381-24.381h-219.429v-146.286zM390.095 146.286v-146.286h243.81v146.286h-243.81zM390.095 341.333v-146.286h243.81v146.286h-243.81zM390.095 536.381v-146.286h243.81v146.286h-243.81zM390.095 731.428v-146.286h243.81v146.286h-243.81z" />
<glyph unicode="&#xe90a;" glyph-name="hs-date-refreshed" d="M1016.783 494.738c-4.389-4.389-10.484-7.119-17.164-7.119h-438.955c-13.41 0-24.332 10.923-24.332 24.332s10.923 24.332 24.332 24.332h408.917c-10.289 65.048-34.718 128.926-74.118 187.051-143.555 211.578-431.933 266.825-643.511 123.319-211.578-143.555-266.825-431.933-123.319-643.511 143.555-211.578 431.933-266.825 643.511-123.319 110.007 74.654 177.786 188.465 197.291 310.272h49.25c-19.895-137.509-95.281-266.484-219.185-350.549-233.862-158.671-552.521-97.573-711.144 136.241-158.671 233.862-97.573 552.521 136.241 711.144 233.862 158.671 552.521 97.573 711.144-136.241 15.165-22.382 28.331-45.544 39.546-69.242v269.458c0 13.41 10.923 24.332 24.332 24.332s24.332-10.923 24.332-24.332v-438.955c0-6.68-2.731-12.776-7.119-17.164l-0.049-0.049z" />
<glyph unicode="&#xe90b;" glyph-name="hs-gantt-chart" d="M146.286 243.809v-268.19c0-13.458-10.923-24.381-24.381-24.381s-24.381 10.923-24.381 24.381v633.905c0 13.458 10.923 24.381 24.381 24.381s24.381-10.923 24.381-24.381v-316.952c0 0 170.667 0 170.667 0 3.56 0 6.973-0.78 10.045-2.146l0.049-0.049c8.436-3.803 14.287-12.337 14.287-22.187v-268.19h121.905c13.458 0 24.381-10.923 24.381-24.381s-10.923-24.381-24.381-24.381h-146.286c-13.458 0-24.381 10.923-24.381 24.381v268.19h-146.286zM999.619 146.286c13.458 0 24.381-10.923 24.381-24.381v-146.286c0-13.458-10.923-24.381-24.381-24.381 0 0-438.857 0-438.857 0-13.458 0-24.381 10.923-24.381 24.381v146.286c0 13.458 10.923 24.381 24.381 24.381 0 0 438.857 0 438.857 0zM48.762 950.857v-975.238c0-13.458-10.923-24.381-24.381-24.381s-24.381 10.923-24.381 24.381v975.238c0 13.458 10.923 24.381 24.381 24.381s24.381-10.923 24.381-24.381zM585.143 97.524v-97.524h390.095v97.524h-390.095zM707.048 390.095c13.41 0 24.332-10.874 24.381-24.283 0 0 0-0.098 0-0.098v-146.334c-0.049-13.458-10.923-24.332-24.381-24.332 0 0-292.571 0-292.571 0-13.458 0-24.381 10.923-24.381 24.381v146.286c0 13.458 10.923 24.381 24.381 24.381 0 0 292.571 0 292.571 0zM438.857 341.333v-97.524h243.81v97.524h-243.81zM219.282 633.905c0.049 0 0.098 0 0.146 0h780.19c0.049 0 0.098 0 0.146 0 13.41-0.098 24.235-10.971 24.235-24.381v-146.286c0-13.41-10.825-24.283-24.235-24.381-0.049 0-0.098 0-0.146 0h-780.19c-0.049 0-0.098 0-0.146 0-13.41 0.098-24.235 10.971-24.235 24.381v146.286c0 13.41 10.825 24.283 24.235 24.381zM243.81 585.143v-97.524h731.429v97.524h-731.429zM121.758 877.714c0.049 0 0.098 0 0.146 0h877.714c0.049 0 0.098 0 0.146 0 13.41-0.098 24.235-10.971 24.235-24.381v-146.286c0-13.41-10.825-24.283-24.235-24.381-0.049 0-0.098 0-0.146 0h-877.714c-0.049 0-0.098 0-0.146 0-13.41 0.098-24.235 10.971-24.235 24.381v146.286c0 13.41 10.825 24.283 24.235 24.381zM146.286 828.952v-97.524h828.952v97.524h-828.952z" />
<glyph unicode="&#xe90c;" glyph-name="hs-burger" d="M1024 170.667c0 13.458-10.923 24.381-24.381 24.381h-975.238c-13.458 0-24.381-10.923-24.381-24.381s10.923-24.381 24.381-24.381h975.238c13.458 0 24.381 10.923 24.381 24.381zM1024 463.238c0 13.458-10.923 24.381-24.381 24.381h-975.238c-13.458 0-24.381-10.923-24.381-24.381s10.923-24.381 24.381-24.381h975.238c13.458 0 24.381 10.923 24.381 24.381zM1024 755.809c0 13.458-10.923 24.381-24.381 24.381h-975.238c-13.458 0-24.381-10.923-24.381-24.381s10.923-24.381 24.381-24.381h975.238c13.458 0 24.381 10.923 24.381 24.381z" />
<glyph unicode="&#xe90d;" glyph-name="hs-share" d="M332.967 576.776c-76.132 76.132-199.707 76.132-275.839 0s-76.132-199.707 0-275.839c76.132-76.132 199.707-76.132 275.839 0s76.132 199.707 0 275.839zM298.522 542.331c57.099-57.099 57.099-149.85 0-206.948s-149.85-57.099-206.948 0c-57.099 57.099-57.099 149.85 0 206.948s149.85 57.099 206.948 0zM966.87 918.11c-76.132 76.132-199.707 76.132-275.839 0s-76.132-199.707 0-275.839c76.132-76.132 199.707-76.132 275.839 0s76.132 199.707 0 275.839zM932.424 883.664c57.099-57.099 57.099-149.85 0-206.948s-149.85-57.099-206.948 0c-57.099 57.099-57.099 149.85 0 206.948s149.85 57.099 206.948 0zM642.438 723.041c4.632-15.165 11.118-29.842 19.505-43.691l-286.769-165.547c13.897-33.304 18.676-70.656 12.142-108.203l274.53-158.476c7.948 13.166 17.652 25.649 29.062 37.059 76.117 76.117 199.729 76.117 275.846 0s76.117-199.729 0-275.846c-76.117-76.117-199.729-76.117-275.846 0-52.76 52.76-68.949 128.341-48.567 195.096l-269.263 155.453c-14.336-31.988-36.718-58.661-63.976-78.263 8.338 5.998 16.335 12.776 23.845 20.334 76.117 76.117 76.117 199.68 0 275.797-21.943 21.992-47.884 37.595-75.483 46.909 38.863-13.068 71.192-37.498 94.208-68.51l290.767 167.887zM932.279 42.813c57.051 57.1 57.051 149.797 0 206.897-57.1 57.1-149.797 57.1-206.897 0s-57.1-149.797 0-206.897c57.1-57.1 149.797-57.1 206.897 0zM259.462 254.732c-35.547-12.386-74.021-14.19-110.446-5.413 37.888-9.216 76.020-6.68 110.446 5.413zM260.827 255.22v0zM0.439 426.423v0zM0.293 429.007v0zM0.195 431.445v0zM0.098 433.883v0zM0.049 436.224v0zM0.049 438.564v0zM0.049 440.856v0zM0.098 443.099v0 0zM255.805 624.201l1.17-0.39-1.658 0.536 0.488-0.146zM253.806 624.884l0.926-0.341-1.609 0.536 0.683-0.195zM251.758 625.469l0.829-0.244-1.804 0.536 0.975-0.293zM155.892 629.906c28.818 5.949 59.392 5.461 89.722-2.682 1.609-0.39 3.218-0.878 4.827-1.365-30.72 9.070-63.293 10.435-94.549 4.047zM154.429 629.614v0zM635.758 753.469v0zM635.173 758.394v0zM634.929 760.686v0zM634.685 763.319v0zM634.49 765.708v0zM634.295 768.146v0zM634.197 770.536l0.098-1.658-0.049 0.536-0.049 1.122zM634.1 772.974c0-0.683 0.049-1.365 0.049-2.048l-0.049 2.048zM634.002 775.314l0.049-1.853v0.78l-0.049 1.073zM633.954 777.801c0-0.731 0.049-1.463 0.049-2.194l-0.049 2.194zM633.954 780.093v0zM633.954 780.239c0 49.932 19.017 99.864 57.1 137.899 76.117 76.117 199.68 76.117 275.797 0 38.083-38.083 57.1-88.015 57.1-137.947 0 49.932-19.017 99.864-57.1 137.899-76.117 76.117-199.68 76.117-275.797 0-38.083-38.034-57.1-87.918-57.1-137.85z" />
<glyph unicode="&#xe90e;" glyph-name="hs-approved-ruleset" d="M1.122-31.354c2.974-10.045 12.337-17.408 23.357-17.408h782.336c13.458 0 24.381 10.923 24.381 24.381s-10.923 24.381-24.381 24.381h-757.955v926.476h757.955c13.458 0 24.381 10.923 24.381 24.381s-10.923 24.381-24.381 24.381h-780.971c-0.439 0.049-0.926 0.049-1.365 0.049-13.458 0-24.381-10.923-24.381-24.381v-975.238c0-2.438 0.341-4.779 1.024-7.022zM560.859 195.048c13.458 0 24.381 10.923 24.381 24.381s-10.923 24.381-24.381 24.381h-390.095c-13.458 0-24.381-10.923-24.381-24.381s10.923-24.381 24.381-24.381h390.095zM755.663 253.903l-80.018 80.067c-9.557 9.509-24.966 9.509-34.523 0-9.509-9.509-9.509-24.966 0-34.475l97.329-97.329c9.509-9.509 24.966-9.509 34.475 0l243.81 243.81c9.509 9.509 9.509 24.966 0 34.523-9.509 9.509-24.966 9.509-34.475 0l-226.597-226.597zM560.859 438.857c13.458 0 24.381 10.923 24.381 24.381s-10.923 24.381-24.381 24.381h-390.095c-13.458 0-24.381-10.923-24.381-24.381s10.923-24.381 24.381-24.381h390.095zM755.663 497.713l-80.018 80.067c-9.557 9.509-24.966 9.509-34.523 0-9.509-9.509-9.509-24.966 0-34.475l97.329-97.329c9.509-9.509 24.966-9.509 34.475 0l243.81 243.81c9.509 9.509 9.509 24.966 0 34.523-9.509 9.509-24.966 9.509-34.475 0l-226.597-226.597zM560.859 682.667c13.458 0 24.381 10.923 24.381 24.381s-10.923 24.381-24.381 24.381h-390.095c-13.458 0-24.381-10.923-24.381-24.381s10.923-24.381 24.381-24.381h390.095zM755.663 741.522l-80.018 80.067c-9.557 9.509-24.966 9.509-34.523 0-9.509-9.509-9.509-24.966 0-34.475l97.329-97.329c9.509-9.509 24.966-9.509 34.475 0l243.81 243.81c9.509 9.509 9.509 24.966 0 34.523-9.509 9.509-24.966 9.509-34.475 0l-226.597-226.597z" />
<glyph unicode="&#xe90f;" glyph-name="hs-status-in-progress" d="M1024.049-24.381c0-13.507-10.923-24.43-24.43-24.43h-586.362c-13.507 0-24.43 10.923-24.43 24.43s10.923 24.43 24.43 24.43h586.362c13.507 0 24.43-10.923 24.43-24.43zM760.198 946.859c18.286 18.188 43.008 28.379 68.803 28.379 23.845 0 46.909-8.728 64.756-24.576l-0.146-0.195c1.999-1.073 3.901-2.487 5.559-4.194l98.060-98.060c1.17-1.122 2.194-2.389 3.072-3.657l0.098 0.098c15.262-17.701 23.65-40.326 23.65-63.683 0-25.844-10.289-50.664-28.574-68.949l-753.615-753.615c-5.364-5.364-12.581-7.704-19.602-7.070-0.926-0.098-1.853-0.146-2.828-0.146h-194.95c-8.192 0-15.409 4.047-19.846 10.191-2.974 4.047-4.681 9.021-4.681 14.385v194.901c0 1.073 0.049 2.146 0.195 3.17-0.78 7.070 1.56 14.482 6.973 19.895l753.079 753.128zM721.189 706.999l-65.877 65.877-606.501-606.501v-166.327h165.595l606.891 606.842-65.536 65.536-567.735-567.686c-9.509-9.557-25.015-9.557-34.523 0-9.557 9.509-9.557 25.015 0 34.523l567.686 567.735zM861.964 914.871l-0.585-0.683c-8.923 7.948-20.431 12.288-32.378 12.288-12.873 0-25.21-5.071-34.328-14.092l0.098-0.098-104.887-104.887 81.14-81.14c0.731-0.585 1.414-1.219 2.097-1.902s1.317-1.365 1.902-2.097l80.798-80.798 105.131 105.131 0.049-0.098c9.167 9.167 14.287 21.553 14.287 34.475 0 11.703-4.194 22.967-11.8 31.842l0.049 0.049c-0.293 0.293-0.585 0.536-0.829 0.829l-98.060 98.060c-0.975 0.975-1.853 2.048-2.682 3.121z" />
<glyph unicode="&#xe910;" d="M1024 853.382v-73.143c0-32.329-12.873-63.342-35.694-86.211-9.070-9.021-19.456-16.579-30.818-22.382l-323.535-186.807v-508.245c0-0.488-0.049-0.975-0.049-1.414-0.049-2.389-0.439-4.779-1.219-7.168-4.194-12.824-17.993-19.797-30.769-15.604l-297.35 97.231c-12.824 4.194-19.797 17.993-15.604 30.769 4.194 12.824 17.944 19.797 30.769 15.604l265.411-86.796v485.425c-1.658 9.752 2.779 19.992 11.849 25.21l339.773 196.169c0.878 0.536 1.804 0.975 2.731 1.365 5.218 3.121 9.996 6.827 14.287 11.166 13.751 13.702 21.455 32.28 21.455 51.688l-0.049 73.143h48.811zM174.714 487.668c9.947 28.623 37.157 49.201 69.096 49.201 31.988 0 59.197-20.578 69.144-49.201h52.76c13.458 0 24.381-10.923 24.381-24.381s-10.923-24.381-24.381-24.381h-2.243c-46.86-0.634-89.186-20.139-119.662-51.298-30.964 31.646-74.167 51.298-121.905 51.298-13.458 0-24.381 10.923-24.381 24.381s10.923 24.381 24.381 24.381h52.809zM0.049 853.382h-0.049c0 32.378 12.824 63.39 35.694 86.211 22.869 22.869 53.882 35.742 86.211 35.742h780.19c32.378 0 63.39-12.873 86.211-35.742 22.869-22.821 35.742-53.833 35.742-86.211h-48.762c0 19.407-7.704 38.034-21.455 51.736-13.41 13.458-31.5 21.114-50.469 21.406v0l-782.287 0.049c-19.066-0.244-37.352-7.899-50.859-21.455-13.751-13.702-21.455-32.329-21.455-51.736v0 0h0.049l-0.049-73.143c0-19.407 7.704-37.986 21.455-51.688 4.291-4.34 9.070-8.046 14.287-11.166 0.926-0.39 1.853-0.829 2.731-1.365l147.602-85.187c11.703-6.778 15.701-21.699 8.972-33.353-6.778-11.654-21.699-15.653-33.353-8.923l-143.945 83.090c-11.362 5.803-21.748 13.361-30.818 22.382-22.821 22.869-35.694 53.882-35.694 86.211v73.143h0.049z" />
<glyph unicode="&#xe911;" d="M208.11 354.38c-47.582 47.582-124.817 47.582-172.399 0s-47.582-124.817 0-172.399c47.582-47.582 124.817-47.582 172.399 0s47.582 124.817 0 172.399zM173.63 319.901c28.549-28.549 28.549-74.89 0-103.44s-74.89-28.549-103.44 0c-28.549 28.549-28.549 74.89 0 103.44s74.89 28.549 103.44 0z" />
<glyph unicode="&#xe912;" d="M451.92 354.38c-47.582 47.582-124.817 47.582-172.399 0s-47.582-124.817 0-172.399c47.582-47.582 124.817-47.582 172.399 0s47.582 124.817 0 172.399zM417.44 319.901c28.549-28.549 28.549-74.89 0-103.44s-74.89-28.549-103.44 0c-28.549 28.549-28.549 74.89 0 103.44s74.89 28.549 103.44 0z" />
<glyph unicode="&#xe913;" glyph-name="hs-menu-edit" d="M0 170.667c0-13.458 10.923-24.381 24.381-24.381h341.333c13.458 0 24.381 10.923 24.381 24.381s-10.923 24.381-24.381 24.381h-341.333c-13.458 0-24.381-10.923-24.381-24.381zM0 463.238c0-13.458 10.923-24.381 24.381-24.381h536.381c13.458 0 24.381 10.923 24.381 24.381s-10.923 24.381-24.381 24.381h-536.381c-13.458 0-24.381-10.923-24.381-24.381zM1024 755.809c0 13.458-10.923 24.381-24.381 24.381h-975.238c-13.458 0-24.381-10.923-24.381-24.381s10.923-24.381 24.381-24.381h975.238c13.458 0 24.381 10.923 24.381 24.381zM902.095 682.667c6.242 0 12.483-2.389 17.262-7.119 0.098-0.098 0.146-0.195 0.244-0.293l96.987-96.987c0.098-0.098 0.195-0.146 0.293-0.244 4.73-4.779 7.119-11.020 7.119-17.262s-2.389-12.483-7.119-17.262c-0.098-0.098-0.195-0.195-0.293-0.244l-389.851-389.851c-2.877-2.877-6.29-4.876-9.899-5.998-2.243-0.731-4.681-1.122-7.168-1.122h-97.67c-6.534 0-12.483 2.584-16.872 6.778-4.632 4.437-7.509 10.679-7.509 17.603v97.67c0 2.487 0.39 4.925 1.122 7.168 1.122 3.608 3.121 7.022 5.998 9.899l389.851 389.851c0.049 0.098 0.146 0.195 0.244 0.293 4.779 4.73 11.020 7.119 17.262 7.119zM804.571 526.287l-268.19-268.19v-63.049h63.049l268.19 268.19-63.049 63.049zM839.046 560.762l63.049-63.049 63.049 63.049-63.049 63.049-63.049-63.049z" />
<glyph unicode="&#xe914;" glyph-name="hs-copy" d="M390.095 950.857c0 13.458 10.923 24.381 24.381 24.381h585.143c13.458 0 24.381-10.923 24.381-24.381v-780.19c0-13.458-10.923-24.381-24.381-24.381h-365.714v-170.033c0-8.436-4.34-15.896-10.874-20.285-4.047-2.974-9.021-4.73-14.434-4.73h-584.216c-13.458 0-24.381 10.923-24.381 24.381v780.19c0 6.193 2.292 11.849 6.095 16.14l0.049 0.049c4.486 5.022 10.971 8.192 18.237 8.192h365.714v170.667zM585.143 731.428h-536.381v-731.429h536.381v731.429zM316.952 146.286h-146.286c-13.458 0-24.381 10.923-24.381 24.381s10.923 24.381 24.381 24.381h146.286c13.458 0 24.381-10.923 24.381-24.381s-10.923-24.381-24.381-24.381zM633.905 195.048h341.333v731.429h-536.381v-146.286h170.667c13.458 0 24.381-10.923 24.381-24.381v-560.762zM463.238 341.333h-292.571c-13.458 0-24.381 10.923-24.381 24.381s10.923 24.381 24.381 24.381h292.571c13.458 0 24.381-10.923 24.381-24.381s-10.923-24.381-24.381-24.381zM463.238 536.381h-292.571c-13.458 0-24.381 10.923-24.381 24.381s10.923 24.381 24.381 24.381h292.571c13.458 0 24.381-10.923 24.381-24.381s-10.923-24.381-24.381-24.381z" />
<glyph unicode="&#xe915;" glyph-name="hs-calculator" d="M97.036-48.762c-25.698 0.146-50.274 10.386-68.462 28.574s-28.428 42.764-28.574 68.462v0 829.879c0.098 25.698 10.386 50.322 28.574 68.51s42.764 28.428 68.462 28.574h829.879c25.698-0.098 50.322-10.386 68.51-28.574 18.286-18.286 28.574-43.106 28.574-68.949v-829.879c-0.098-25.698-10.386-50.322-28.574-68.51-18.286-18.286-43.106-28.574-68.949-28.574l-829.44 0.488zM97.524 926.476c-12.922 0-25.356-5.12-34.475-14.287-9.167-9.118-14.287-21.553-14.287-34.475v-828.952c0-12.922 5.12-25.356 14.287-34.475 9.118-9.167 21.553-14.287 34.475-14.287l829.391-0.488c12.776 0.146 25.015 5.266 34.036 14.287 9.167 9.167 14.287 21.553 14.287 34.475v829.44c0 12.922-5.12 25.356-14.287 34.475-9.118 9.167-21.553 14.287-34.475 14.287h-828.952zM780.19 195.048h-97.524v73.143c0 13.458-10.923 24.381-24.381 24.381s-24.381-10.923-24.381-24.381v-73.143h-97.524v73.143c0 13.458-10.923 24.381-24.381 24.381s-24.381-10.923-24.381-24.381v-73.143h-97.524v73.143c0 13.458-10.923 24.381-24.381 24.381s-24.381-10.923-24.381-24.381v-73.143h-97.524v73.143c0 13.458-10.923 24.381-24.381 24.381s-24.381-10.923-24.381-24.381v-73.143h-73.63c-13.458 0-24.381-10.923-24.381-24.381s10.923-24.381 24.381-24.381h73.63v-73.63c0-13.458 10.923-24.381 24.381-24.381s24.381 10.923 24.381 24.381v73.63h97.524v-73.63c0-13.458 10.923-24.381 24.381-24.381s24.381 10.923 24.381 24.381v73.63h97.524v-73.63c0-13.458 10.923-24.381 24.381-24.381s24.381 10.923 24.381 24.381v73.63h97.524v-73.63c0-13.458 10.923-24.381 24.381-24.381s24.381 10.923 24.381 24.381v73.63h97.524v-73.63c0-13.458 10.923-24.381 24.381-24.381s24.381 10.923 24.381 24.381v73.63h73.582c13.458 0 24.381 10.923 24.381 24.381s-10.923 24.381-24.381 24.381h-73.582v73.143c0 13.458-10.923 24.381-24.381 24.381s-24.381-10.923-24.381-24.381v-73.143zM780.19 487.619h-97.524v73.143c0 13.458-10.923 24.381-24.381 24.381s-24.381-10.923-24.381-24.381v-73.143h-512.488c-13.458 0-24.381-10.923-24.381-24.381s10.923-24.381 24.381-24.381h512.488v-73.63c0-13.458 10.923-24.381 24.381-24.381s24.381 10.923 24.381 24.381v73.63h97.524v-73.63c0-13.458 10.923-24.381 24.381-24.381s24.381 10.923 24.381 24.381v73.63h73.582c13.458 0 24.381 10.923 24.381 24.381s-10.923 24.381-24.381 24.381h-73.582v73.143c0 13.458-10.923 24.381-24.381 24.381s-24.381-10.923-24.381-24.381v-73.143zM780.19 780.19h-97.524v73.143c0 13.458-10.923 24.381-24.381 24.381s-24.381-10.923-24.381-24.381v-73.143h-97.524v73.143c0 13.458-10.923 24.381-24.381 24.381s-24.381-10.923-24.381-24.381v-73.143h-97.524v73.143c0 13.458-10.923 24.381-24.381 24.381s-24.381-10.923-24.381-24.381v-73.143h-219.916c-13.458 0-24.381-10.923-24.381-24.381s10.923-24.381 24.381-24.381h219.916v-73.63c0-13.458 10.923-24.381 24.381-24.381s24.381 10.923 24.381 24.381v73.63h97.524v-73.63c0-13.458 10.923-24.381 24.381-24.381s24.381 10.923 24.381 24.381v73.63h97.524v-73.63c0-13.458 10.923-24.381 24.381-24.381s24.381 10.923 24.381 24.381v73.63h97.524v-73.63c0-13.458 10.923-24.381 24.381-24.381s24.381 10.923 24.381 24.381v73.63h73.582c13.458 0 24.381 10.923 24.381 24.381s-10.923 24.381-24.381 24.381h-73.582v73.143c0 13.458-10.923 24.381-24.381 24.381s-24.381-10.923-24.381-24.381v-73.143z" />
<glyph unicode="&#xe916;" glyph-name="hs-download" d="M975.238 0h-926.476v463.238c0 13.458-10.923 24.381-24.381 24.381s-24.381-10.923-24.381-24.381v-487.619c0-8.143 3.998-15.36 10.142-19.797l0.049-0.049c3.998-2.828 8.875-4.535 14.19-4.535h975.238c5.315 0 10.191 1.707 14.19 4.535l0.049 0.049c6.144 4.437 10.142 11.654 10.142 19.797v487.619c0 13.458-10.923 24.381-24.381 24.381s-24.381-10.923-24.381-24.381v-463.238zM487.619 180.76v770.097c0 13.458 10.923 24.381 24.381 24.381s24.381-10.923 24.381-24.381v-770.097l199.387 199.387c9.509 9.509 24.966 9.509 34.475 0s9.509-24.966 0-34.475l-240.591-240.591c-0.146-0.146-0.293-0.293-0.39-0.439-3.608-3.608-8.094-5.851-12.776-6.729l-0.39-0.049c-0.829-0.146-1.658-0.244-2.487-0.293l-1.317-0.049-1.804 0.049h-0.098c-0.829 0.049-1.658 0.146-2.487 0.293l-0.39 0.049c-4.681 0.878-9.167 3.121-12.776 6.729-0.098 0.146-0.244 0.293-0.39 0.439l-240.591 240.591c-9.509 9.509-9.509 24.966 0 34.475s24.966 9.509 34.475 0l199.387-199.387z" />
<glyph unicode="&#xe917;" glyph-name="hs-favorite" d="M926.476 975.238v0.195c25.844 0 50.664-10.289 68.949-28.574 18.139-18.139 28.379-42.618 28.574-68.218v0-830.074c-0.098-25.746-10.386-50.371-28.574-68.608-26.283-26.283-65.195-35.255-100.206-23.406-0.634 0.195-1.268 0.39-1.853 0.634l-381.123 145.213-383.269-146.042c-1.122-0.439-2.292-0.78-3.462-1.024-34.182-10.24-71.436-1.024-96.939 24.478-18.188 18.188-28.477 42.862-28.574 68.559v0 830.074c0.195 25.6 10.435 50.127 28.574 68.218 18.091 18.139 42.618 28.379 68.218 28.574v0h829.684zM927.939 926.476h-830.415c-12.922 0-25.356-5.12-34.475-14.287-9.167-9.118-14.287-21.553-14.287-34.475v-828.952c0-12.922 5.12-25.356 14.287-34.475 13.605-13.605 33.89-17.944 51.883-11.069v0l388.73 148.090c6.534 2.487 13.41 1.999 19.261-0.78l386.146-147.163c17.993-6.827 38.278-2.487 51.883 11.118 9.167 9.118 14.287 21.504 14.287 34.475v828.952c0 12.922-5.12 25.307-14.287 34.475-8.777 8.777-20.578 13.848-33.012 14.238v-0.146zM512.39 828.952c9.752 0.049 19.017-5.754 22.821-15.36l74.557-187.294 201.289-14.043c12.971-0.926 22.821-11.8 22.674-24.576 0.098-7.119-2.926-14.238-8.875-19.115l-155.404-127.951 52.175-194.755c0.585-2.097 0.829-4.194 0.829-6.29 0-4.486-1.219-9.021-3.803-13.068-3.95-6.242-10.338-10.094-17.164-11.069h-0.098c-1.122-0.195-2.243-0.244-3.316-0.244h-0.098c-4.437 0-8.923 1.219-12.971 3.803l-172.617 109.519-172.666-109.519c-4.047-2.584-8.533-3.803-12.971-3.803h-0.098c-1.073 0-2.194 0.049-3.267 0.244h-0.146c-6.827 0.975-13.166 4.827-17.164 11.069-2.584 4.047-3.803 8.582-3.803 13.068 0 2.097 0.293 4.194 0.829 6.29l52.175 194.755-155.404 127.951c-5.949 4.876-8.972 11.995-8.875 19.115-0.146 12.776 9.752 23.65 22.674 24.576l201.338 14.043 74.508 187.294c3.852 9.606 13.117 15.409 22.869 15.36zM512.39 739.084l-57.734-145.067c-3.706-9.265-12.434-15.019-21.797-15.36l-155.355-10.825 120.832-99.474c5.9-4.876 8.923-11.947 8.875-19.066 0-2.146-0.244-4.34-0.829-6.534l-39.985-149.114 132.827 84.261c3.218 2.048 6.68 3.218 10.24 3.657 5.413 0.634 11.069-0.488 16.043-3.608l132.827-84.309-39.936 149.114c-0.585 2.194-0.878 4.389-0.829 6.534-0.098 7.119 2.974 14.19 8.875 19.066l120.783 99.474-155.355 10.825c-9.362 0.341-18.091 6.095-21.748 15.36l-57.734 145.067z" />
<glyph unicode="&#xe918;" glyph-name="hs-download-calendar" d="M902.534 658.871c-161.743 161.743-424.424 161.743-586.167 0s-161.743-424.424 0-586.167c161.743-161.743 424.424-161.743 586.167 0s161.743 424.424 0 586.167zM868.059 624.396c142.726-142.726 142.726-374.491 0-517.218s-374.491-142.726-517.218 0c-142.726 142.726-142.726 374.491 0 517.218s374.491 142.726 517.218 0zM585.143 926.476h-146.286v24.381c0 13.458-10.923 24.381-24.381 24.381s-24.381-10.923-24.381-24.381v-24.381h-146.286v24.381c0 13.458-10.923 24.381-24.381 24.381s-24.381-10.923-24.381-24.381v-24.381h-73.143c-32.329 0-63.342-12.824-86.211-35.694-22.382-22.43-35.157-52.663-35.694-84.309v0-587.483c0.098-32.183 12.922-63 35.694-85.772 22.674-22.626 53.297-35.45 85.333-35.694 0.293 0 0.585 0 0.878 0h48.762c13.458 0 24.381 10.923 24.381 24.381s-10.923 24.381-24.381 24.381h-48.762c-19.407 0-37.986 7.704-51.688 21.455-13.751 13.702-21.455 32.28-21.455 51.688v463.238h170.667c13.458 0 24.381 10.923 24.381 24.381s-10.923 24.381-24.381 24.381h-170.667v73.143c0 19.407 7.704 37.986 21.455 51.688 13.702 13.751 32.28 21.455 51.688 21.455h73.143v-24.381c0-13.458 10.923-24.381 24.381-24.381s24.381 10.923 24.381 24.381v24.381h146.286v-24.381c0-13.458 10.923-24.381 24.381-24.381s24.381 10.923 24.381 24.381v24.381h146.286v-24.381c0-13.458 10.923-24.381 24.381-24.381s24.381 10.923 24.381 24.381v24.381h170.667c13.458 0 24.381 10.923 24.381 24.381s-10.923 24.381-24.381 24.381h-170.667v24.381c0 13.458-10.923 24.381-24.381 24.381s-24.381-10.923-24.381-24.381v-24.381zM780.19 243.809h-341.333v121.905c0 13.458-10.923 24.381-24.381 24.381s-24.381-10.923-24.381-24.381v-146.286c0-13.458 10.923-24.381 24.381-24.381h390.095c13.458 0 24.381 10.923 24.381 24.381v146.286c0 13.458-10.923 24.381-24.381 24.381s-24.381-10.923-24.381-24.381v-121.905zM146.286 243.809v48.762h-48.762v-48.762h48.762zM585.143 375.857v233.667c0 13.458 10.923 24.381 24.381 24.381s24.381-10.923 24.381-24.381v-233.716l55.93 55.93c9.509 9.509 24.966 9.509 34.475 0 9.509-9.557 9.509-24.966 0-34.523l-97.085-97.085c-0.146-0.146-0.293-0.293-0.439-0.439-4.779-4.73-11.020-7.119-17.262-7.119h-0.146c-2.682 0-5.218 0.439-7.607 1.268h-0.098c-3.413 1.17-6.632 3.121-9.411 5.851-0.146 0.146-0.293 0.293-0.439 0.439l-97.085 97.085c-9.509 9.557-9.509 24.966 0 34.523 9.557 9.509 24.966 9.509 34.523 0l55.881-55.881zM146.286 390.095v48.762h-48.762v-48.762h48.762zM146.286 536.381v48.762h-48.762v-48.762h48.762z" />
<glyph unicode="&#xe919;" glyph-name="hs-fullscreen" d="M0 950.857c0 13.458 10.923 24.381 24.381 24.381h975.238c13.458 0 24.381-10.923 24.381-24.381v-780.19c0-13.458-10.923-24.381-24.381-24.381h-365.714v-146.286h121.905c13.458 0 24.381-10.923 24.381-24.381s-10.923-24.381-24.381-24.381h-487.619c-13.458 0-24.381 10.923-24.381 24.381s10.923 24.381 24.381 24.381h121.905v146.286h-365.714c-13.458 0-24.381 10.923-24.381 24.381v780.19zM438.857 146.286v-146.286h146.286v146.286h-146.286zM48.762 926.476v-731.429h926.476v731.429h-926.476zM122.051 633.905c2.487 0 4.925-0.39 7.168-1.122h0.098c3.56-1.17 6.973-3.17 9.801-5.998l341.333-341.333c2.097-2.097 3.706-4.437 4.876-6.924l0.049-0.049c1.414-3.121 2.243-6.632 2.243-10.289 0-4.584-1.268-8.826-3.462-12.483-0.878-1.512-1.95-2.926-3.17-4.242l-1.024-1.024c-1.317-1.219-2.731-2.292-4.242-3.17-3.657-2.194-7.899-3.462-12.483-3.462h-341.333c-13.458 0-24.381 10.923-24.381 24.381v341.626l0.049 1.317c0.049 0.829 0.146 1.658 0.293 2.487l0.049 0.39c0.878 4.681 3.121 9.167 6.729 12.776s8.094 5.851 12.776 6.729l0.39 0.049c0.829 0.146 1.658 0.244 2.487 0.293l1.755 0.049zM146.286 550.668v-258.097h258.097l-258.097 258.097zM548.279 874.252c3.657 2.194 7.899 3.462 12.483 3.462h341.48c13.41-0.098 24.235-10.971 24.235-24.381v-341.626l-0.049-1.317c-0.049-0.829-0.146-1.658-0.293-2.487l-0.049-0.39c-0.878-4.681-3.121-9.167-6.729-12.776s-8.094-5.851-12.776-6.729l-0.39-0.049c-0.829-0.146-1.658-0.244-2.487-0.293l-1.755-0.049c-2.487 0-4.925 0.39-7.168 1.122h-0.098c-3.56 1.17-6.973 3.17-9.801 5.998l-341.333 341.333c-2.097 2.097-3.706 4.437-4.876 6.924l-0.049 0.049c-1.414 3.121-2.243 6.632-2.243 10.289 0 4.584 1.268 8.826 3.462 12.483 0.878 1.512 1.95 2.926 3.17 4.242l1.024 1.024c1.317 1.219 2.731 2.292 4.242 3.17zM877.714 570.856v258.097h-258.097l258.097-258.097z" />
<glyph unicode="&#xe91a;" glyph-name="hs-jobgroup, menu-hs-team" d="M974.507 98.109c-5.998 87.918-43.642 170.959-106.301 233.667-71.387 71.339-165.010 107.032-258.633 107.081 6.632 15.848 11.995 32.378 15.994 49.445 50.761 3.657 100.45 24.869 139.215 63.634 85.626 85.626 85.626 224.695 0 310.321s-224.695 85.626-310.321 0c-3.608-3.608-7.070-7.314-10.386-11.118-15.701 6.924-32.085 12.581-49.054 16.872 7.558 9.996 15.848 19.602 24.966 28.721 104.643 104.692 274.627 104.692 379.27 0 104.692-104.643 104.692-274.627 0-379.27-20.041-20.041-42.472-36.23-66.414-48.616 62.123-19.261 120.637-53.492 169.789-102.644 71.192-71.241 113.81-165.693 120.442-265.606 0.146-0.975 0.195-2.048 0.195-3.072 0-13.458-10.923-24.381-24.381-24.381s-24.381 10.923-24.381 24.381c0 0.195 0 0.39 0 0.585zM679.741-25.356c0.488-13.019 11.215-23.406 24.332-23.406 13.458 0 24.381 10.923 24.381 24.381 0 1.853-0.195 3.657-0.585 5.364-11.849 89.966-52.955 174.080-117.809 238.933-49.152 49.152-107.666 83.383-169.789 102.644 23.942 12.386 46.373 28.574 66.414 48.616 104.692 104.643 104.692 274.627 0 379.27-104.643 104.692-274.627 104.692-379.27 0-104.692-104.643-104.692-274.627 0-379.27 20.041-20.041 42.423-36.23 66.316-48.567-62.123-19.261-120.637-53.492-169.838-102.693-5.51-5.51-10.825-11.118-15.945-16.872-4.876-4.486-7.948-10.874-7.948-17.993 0-13.458 10.923-24.381 24.381-24.381 7.412 0 14.092 3.316 18.53 8.533l15.36 16.286c142.775 142.775 374.589 142.775 517.364 0 57.246-57.246 93.574-131.462 104.058-210.846h0.049zM472.21 715.971c85.626-85.626 85.626-224.695 0-310.321s-224.695-85.626-310.321 0c-85.626 85.626-85.626 224.695 0 310.321s224.695 85.626 310.321 0z" />
<glyph unicode="&#xe91b;" glyph-name="hs-history-activity" d="M24.43 487.619h341.285c13.458 0 24.381 10.923 24.381 24.381s-10.923 24.381-24.381 24.381h-97.524c-0.731 0-1.463-0.049-2.194-0.098h-211.529c10.289 65.048 34.718 128.926 74.118 187.051 143.555 211.578 431.933 266.825 643.511 123.319 211.578-143.555 266.825-431.933 123.319-643.511-143.555-211.578-431.933-266.825-643.511-123.319-110.007 74.654-177.786 188.465-197.291 310.272h-49.25c19.895-137.509 95.281-266.484 219.185-350.549 233.862-158.671 552.521-97.573 711.144 136.241 158.671 233.862 97.573 552.521-136.241 711.144-233.862 158.671-552.521 97.573-711.144-136.241-15.165-22.382-28.331-45.544-39.546-69.242v269.458c0 13.41-10.923 24.332-24.332 24.332s-24.332-10.923-24.332-24.332v-438.955c0-6.68 2.731-12.776 7.119-17.164l0.049-0.049c4.389-4.389 10.484-7.119 17.164-7.119zM487.619 463.238v-1.024c0.244-5.315 2.194-10.24 5.315-14.141 2.633-3.365 6.193-6.046 10.386-7.607 0.878-0.341 1.707-0.634 2.584-0.829l235.276-63.049c13.019-3.511 26.38 4.242 29.891 17.213 3.462 13.019-4.242 26.38-17.262 29.891l-217.429 58.27v322.609c0 13.458-10.923 24.381-24.381 24.381s-24.381-10.923-24.381-24.381v-341.333z" />
<glyph unicode="&#xe91c;" glyph-name="hs-offer" d="M902.095 975.238c2.438 0 4.827-0.341 7.070-1.024l0.049-0.049c9.996-3.023 17.262-12.337 17.262-23.308v-975.238c0-10.971-7.266-20.285-17.262-23.308l-0.049-0.049c-2.243-0.683-4.632-1.024-7.070-1.024h-780.19c-2.438 0-4.827 0.341-7.070 1.024l-0.049 0.049c-9.996 3.023-17.262 12.337-17.262 23.308v975.238c0 10.971 7.266 20.285 17.262 23.308l0.049 0.049c2.243 0.683 4.632 1.024 7.070 1.024h780.19zM877.714 926.476h-731.429v-926.476h731.429v926.476zM755.81 97.524h-146.286c-13.458 0-24.381 10.923-24.381 24.381s10.923 24.381 24.381 24.381h146.286c13.458 0 24.381-10.923 24.381-24.381s-10.923-24.381-24.381-24.381zM463.238 97.524h-195.048c-13.458 0-24.381 10.923-24.381 24.381s10.923 24.381 24.381 24.381h195.048c13.458 0 24.381-10.923 24.381-24.381s-10.923-24.381-24.381-24.381zM658.286 243.809h-390.095c-13.458 0-24.381 10.923-24.381 24.381s10.923 24.381 24.381 24.381h390.095c13.458 0 24.381-10.923 24.381-24.381s-10.923-24.381-24.381-24.381zM560.762 487.619h-292.571c-13.458 0-24.381 10.923-24.381 24.381s10.923 24.381 24.381 24.381h292.571c13.458 0 24.381-10.923 24.381-24.381s-10.923-24.381-24.381-24.381zM414.476 633.905h-146.286c-13.458 0-24.381 10.923-24.381 24.381s10.923 24.381 24.381 24.381h146.286c13.458 0 24.381-10.923 24.381-24.381s-10.923-24.381-24.381-24.381zM707.048 633.905h-146.286c-13.458 0-24.381 10.923-24.381 24.381s10.923 24.381 24.381 24.381h146.286c13.458 0 24.381-10.923 24.381-24.381s-10.923-24.381-24.381-24.381zM463.238 780.19h-195.048c-13.458 0-24.381 10.923-24.381 24.381s10.923 24.381 24.381 24.381h195.048c13.458 0 24.381-10.923 24.381-24.381s-10.923-24.381-24.381-24.381z" />
<glyph unicode="&#xe91d;" glyph-name="hs-calendar" d="M731.429 926.476v24.381c0 13.458 10.923 24.381 24.381 24.381s24.381-10.923 24.381-24.381v-24.381h148.334c0.731 0 1.414-0.049 2.097-0.098 24.332-1.024 47.494-11.166 64.805-28.477 18.286-18.286 28.574-43.106 28.574-68.949 0 0 0-780.19 0-780.19 0-25.844-10.289-50.664-28.574-68.949-17.31-17.31-40.472-27.453-64.805-28.477-0.683-0.049-1.365-0.098-2.097-0.098h-831c-25.844 0-50.664 10.289-68.949 28.574s-28.574 43.106-28.574 68.949c0 0 0 780.19 0 780.19 0 25.844 10.289 50.664 28.574 68.949s43.106 28.574 68.949 28.574c0 0 146.286 0 146.286 0v24.381c0 13.458 10.923 24.381 24.381 24.381s24.381-10.923 24.381-24.381v-24.381h195.048v24.381c0 13.458 10.923 24.381 24.381 24.381s24.381-10.923 24.381-24.381v-24.381h195.048zM975.238 682.667h-926.476v-633.905c0-12.922 5.12-25.356 14.287-34.475 9.118-9.167 21.553-14.287 34.475-14.287 0 0 828.952 0 828.952 0 12.922 0 25.356 5.12 34.475 14.287 9.167 9.118 14.287 21.553 14.287 34.475v633.905zM560.762 97.524c13.458 0 24.381 10.923 24.381 24.381s-10.923 24.381-24.381 24.381h-97.524c-13.458 0-24.381-10.923-24.381-24.381s10.923-24.381 24.381-24.381h97.524zM268.19 97.524c13.458 0 24.381 10.923 24.381 24.381s-10.923 24.381-24.381 24.381h-97.524c-13.458 0-24.381-10.923-24.381-24.381s10.923-24.381 24.381-24.381h97.524zM560.762 243.809c13.458 0 24.381 10.923 24.381 24.381s-10.923 24.381-24.381 24.381h-97.524c-13.458 0-24.381-10.923-24.381-24.381s10.923-24.381 24.381-24.381h97.524zM268.19 243.809c13.458 0 24.381 10.923 24.381 24.381s-10.923 24.381-24.381 24.381h-97.524c-13.458 0-24.381-10.923-24.381-24.381s10.923-24.381 24.381-24.381h97.524zM853.333 243.809c13.458 0 24.381 10.923 24.381 24.381s-10.923 24.381-24.381 24.381h-97.524c-13.458 0-24.381-10.923-24.381-24.381s10.923-24.381 24.381-24.381h97.524zM560.762 390.095c13.458 0 24.381 10.923 24.381 24.381s-10.923 24.381-24.381 24.381h-97.524c-13.458 0-24.381-10.923-24.381-24.381s10.923-24.381 24.381-24.381h97.524zM268.19 390.095c13.458 0 24.381 10.923 24.381 24.381s-10.923 24.381-24.381 24.381h-97.524c-13.458 0-24.381-10.923-24.381-24.381s10.923-24.381 24.381-24.381h97.524zM853.333 390.095c13.458 0 24.381 10.923 24.381 24.381s-10.923 24.381-24.381 24.381h-97.524c-13.458 0-24.381-10.923-24.381-24.381s10.923-24.381 24.381-24.381h97.524zM560.762 536.381c13.458 0 24.381 10.923 24.381 24.381s-10.923 24.381-24.381 24.381h-97.524c-13.458 0-24.381-10.923-24.381-24.381s10.923-24.381 24.381-24.381h97.524zM853.333 536.381c13.458 0 24.381 10.923 24.381 24.381s-10.923 24.381-24.381 24.381h-97.524c-13.458 0-24.381-10.923-24.381-24.381s10.923-24.381 24.381-24.381h97.524zM97.524 877.714c-12.922 0-25.356-5.12-34.475-14.287-9.167-9.118-14.287-21.553-14.287-34.475v-97.524h926.476v97.524c0 12.922-5.12 25.356-14.287 34.475-9.118 9.167-21.553 14.287-34.475 14.287h-146.286v-73.143c0-13.458-10.923-24.381-24.381-24.381s-24.381 10.923-24.381 24.381v73.143h-195.048v-73.143c0-13.458-10.923-24.381-24.381-24.381s-24.381 10.923-24.381 24.381v73.143h-195.048v-73.143c0-13.458-10.923-24.381-24.381-24.381s-24.381 10.923-24.381 24.381v73.143h-146.286z" />
<glyph unicode="&#xe91e;" glyph-name="hs-activity" d="M170.667 975.238h829.001c13.458 0 24.381-10.923 24.381-24.381 0-0.585 0-1.17-0.049-1.755v-630.394c0.049-0.585 0.049-1.17 0.049-1.755 0-13.458-10.923-24.381-24.381-24.381h-121.954v-120.149c0.049-0.585 0.049-1.17 0.049-1.755 0-13.458-10.923-24.381-24.381-24.381h-623.86l-186.953-186.953c-4.486-5.022-10.971-8.143-18.188-8.143-13.458 0-24.381 10.923-24.381 24.381v829.001c0 6.729 2.731 12.824 7.119 17.213l0.049 0.049c4.389 4.389 10.484 7.119 17.213 7.119h121.905v121.905c0 13.458 10.923 24.381 24.381 24.381zM828.952 195.048v585.143h-780.19v-745.716l153.405 153.454c2.341 2.292 5.022 4.047 7.899 5.266h0.049c2.877 1.219 6.046 1.853 9.314 1.853h609.524zM877.714 802.816v-461.483h97.524v585.143h-780.19v-97.524h658.334c13.458 0 24.381-10.923 24.381-24.381 0-0.585 0-1.17-0.049-1.755zM658.286 390.095h-438.857c-13.458 0-24.381 10.923-24.381 24.381s10.923 24.381 24.381 24.381h438.857c13.458 0 24.381-10.923 24.381-24.381s-10.923-24.381-24.381-24.381zM658.286 585.143h-438.857c-13.458 0-24.381 10.923-24.381 24.381s10.923 24.381 24.381 24.381h438.857c13.458 0 24.381-10.923 24.381-24.381s-10.923-24.381-24.381-24.381z" />
<glyph unicode="&#xe91f;" glyph-name="hs-service" d="M170.667 975.238h99.133c0.244 0 0.439 0 0.683 0 146.968-1.268 265.899-120.93 265.899-268.19 0-26.77-3.901-52.614-11.215-76.995 1.414-0.926 2.828-1.999 4.096-3.267l457.289-457.191c23.991-23.991 37.498-56.515 37.498-90.453 0-70.607-57.344-127.902-127.951-127.902-30.574 0-59.977 10.923-83.090 30.622-0.975 0.731-1.95 1.56-2.877 2.487l-0.78 0.78c-1.268 1.17-2.487 2.341-3.706 3.56l-453.876 454.022c-2.292 2.292-4.047 4.974-5.266 7.802-24.771-7.558-51.054-11.654-78.312-11.654-147.944 0-267.898 119.808-268.19 267.654 0 0.195 0 0.341 0 0.536v97.816l0.049 1.317c0.049 0.829 0.146 1.658 0.293 2.487l0.049 0.39c0.878 4.681 3.121 9.167 6.729 12.776s8.094 5.851 12.776 6.729l0.39 0.049c0.829 0.146 1.658 0.244 2.487 0.293l1.755 0.049c2.487 0 4.925-0.39 7.168-1.122 3.608-1.122 7.022-3.121 9.899-5.998l136.338-136.338 88.21 23.601 23.601 88.21-136.338 136.338c-1.95 1.95-3.56 4.194-4.681 6.632l-0.049 0.049c-1.512 3.17-2.389 6.778-2.389 10.533 0 2.926 0.536 5.705 1.463 8.338v0.049c1.219 3.218 3.072 6.242 5.656 8.875 3.267 3.218 7.168 5.364 11.264 6.388 1.707 0.439 3.462 0.683 5.266 0.731h0.731zM7.119-41.643c-9.509 9.557-9.509 24.966 0 34.523l345.819 345.771c9.557 9.557 24.966 9.557 34.475 0 9.557-9.509 9.557-24.917 0-34.475l-345.771-345.819c-9.557-9.509-24.966-9.509-34.523 0zM505.32 581.729c-25.21-47.543-64.268-86.601-111.811-111.811l446.708-446.659c14.824-14.824 34.914-23.162 55.881-23.162 43.642 0 79.043 35.401 79.043 79.043 0 20.968-8.338 41.058-23.162 55.881v0l-446.659 446.708zM229.522 926.476l104.692-104.643c4.584-4.584 6.924-10.581 7.119-16.579v-1.073c-0.049-2.194-0.39-4.437-1.024-6.583l-30.33-113.274c-1.804-8.777-8.387-16.189-17.603-18.676l-114.786-30.769c-2.048-0.585-4.145-0.878-6.242-0.975h-1.073c-6.095 0.098-12.19 2.487-16.872 7.119l-104.643 104.692v-38.668c0 0 0.098 0 0.098 0 0-121.125 98.206-219.331 219.331-219.331 121.076 0 219.331 98.304 219.331 219.331s-98.255 219.331-219.331 219.331c-1.463 0-2.926 0-4.389-0.049v0.146h-34.28zM853.333 975.238c6.242 0 12.483-2.389 17.262-7.119 0.098-0.146 0.244-0.293 0.39-0.439l145.457-145.457c0.146-0.146 0.293-0.293 0.439-0.39 9.509-9.509 9.509-24.966 0-34.475l-273.164-273.164c-9.509-9.557-24.966-9.557-34.475 0-9.557 9.509-9.557 24.966 0 34.475l255.902 255.902-111.811 111.811-255.902-255.902c-9.509-9.557-24.966-9.557-34.475 0-9.557 9.509-9.557 24.966 0 34.475l272.725 272.725c0.146 0.146 0.293 0.293 0.39 0.439 4.779 4.73 11.020 7.119 17.262 7.119z" />
<glyph unicode="&#xe920;" glyph-name="hs-tabs" d="M707.048 682.667c6.729 0 12.824-2.731 17.213-7.119l0.049-0.049c4.389-4.389 7.119-10.484 7.119-17.213v-682.667c0-6.729-2.731-12.824-7.119-17.213l-0.049-0.049c-4.389-4.389-10.484-7.119-17.213-7.119h-682.667c-6.729 0-12.824 2.731-17.213 7.119l-0.049 0.049c-4.389 4.389-7.119 10.484-7.119 17.213v682.667c0 6.729 2.731 12.824 7.119 17.213l0.049 0.049c4.389 4.389 10.484 7.119 17.213 7.119h682.667zM48.762 633.905v-633.905h633.905v633.905h-633.905zM341.333 341.333v170.667c0 13.458 10.923 24.381 24.381 24.381s24.381-10.923 24.381-24.381v-170.667h170.667c13.458 0 24.381-10.923 24.381-24.381s-10.923-24.381-24.381-24.381h-170.667v-170.667c0-13.458-10.923-24.381-24.381-24.381s-24.381 10.923-24.381 24.381v170.667h-170.667c-13.458 0-24.381 10.923-24.381 24.381s10.923 24.381 24.381 24.381h170.667zM316.952 975.238h682.667c6.729 0 12.824-2.731 17.213-7.119l0.049-0.049c4.389-4.389 7.119-10.484 7.119-17.213v-682.667c0-10.24-6.339-19.017-15.262-22.626h-0.049c-2.828-1.122-5.851-1.755-9.070-1.755h-195.048c-13.458 0-24.381 10.923-24.381 24.381s10.923 24.381 24.381 24.381h170.667v633.905h-633.905v-170.667c0-13.458-10.923-24.381-24.381-24.381s-24.381 10.923-24.381 24.381v195.048c0 3.218 0.634 6.242 1.755 9.070v0.049c3.608 8.923 12.386 15.262 22.626 15.262z" />
<glyph unicode="&#xe921;" glyph-name="hs-ticket" d="M24.381 877.714h975.238c13.458 0 24.381-10.923 24.381-24.381 0-0.439 0-0.878-0.049-1.268v-242.542c0-13.458-10.923-24.381-24.381-24.381v-0.049c-32.28 0-63.293-12.824-86.162-35.694-47.543-47.543-47.543-124.782 0-172.325 22.869-22.869 53.882-35.694 86.162-35.694v-0.049c13.458 0 24.381-10.923 24.381-24.381v-242.542c0.049-0.39 0.049-0.829 0.049-1.268 0-13.458-10.923-24.381-24.381-24.381h-975.238c-1.853 0-3.706 0.195-5.51 0.634-3.072 0.683-5.998 2.048-8.582 3.852l-0.146 0.098c-6.144 4.437-10.142 11.654-10.142 19.797v243.81c0 13.458 10.923 24.381 24.381 24.381v0.049c32.329 0 63.293 12.824 86.162 35.694 47.543 47.543 47.543 124.782 0 172.325-22.869 22.869-53.833 35.694-86.162 35.694v0.049c-13.458 0-24.381 10.923-24.381 24.381v243.81c0 8.143 3.998 15.36 10.142 19.797l0.049 0.049c3.998 2.828 8.875 4.535 14.19 4.535zM975.189 632.149v196.803h-926.427v-196.803c36.23-5.218 70.071-22.040 96.305-48.226 66.609-66.609 66.609-174.763 0-241.371-26.234-26.185-60.075-43.008-96.305-48.226v-196.803h926.427v196.803c-36.23 5.218-70.071 22.040-96.305 48.226-66.56 66.609-66.56 174.763 0 241.371 26.234 26.185 60.075 43.008 96.305 48.226zM390.095 316.952c0 13.458-10.923 24.381-24.381 24.381h-97.524c-13.458 0-24.381-10.923-24.381-24.381s10.923-24.381 24.381-24.381h97.524c13.458 0 24.381 10.923 24.381 24.381zM536.381 512c0 13.458-10.923 24.381-24.381 24.381h-243.81c-13.458 0-24.381-10.923-24.381-24.381s10.923-24.381 24.381-24.381h243.81c13.458 0 24.381 10.923 24.381 24.381zM780.19 707.048c0 13.458-10.923 24.381-24.381 24.381h-487.619c-13.458 0-24.381-10.923-24.381-24.381s10.923-24.381 24.381-24.381h487.619c13.458 0 24.381 10.923 24.381 24.381z" />
<glyph unicode="&#xe922;" glyph-name="hs-tasks" d="M804.571 975.238h0.146c2.487 0 4.925-0.39 7.168-1.122 3.608-1.122 7.022-3.121 9.899-5.998l195.096-195.048c2.292-2.341 4.047-5.022 5.266-7.899v-0.049c1.219-2.877 1.853-6.046 1.853-9.314v-779.264c0-6.973-2.926-13.263-7.607-17.701-4.437-4.681-10.728-7.607-17.701-7.607h-974.312c-13.458 0-24.381 10.923-24.381 24.381v682.959l0.049 1.317c0.049 0.829 0.146 1.658 0.293 2.487l0.049 0.39c0.878 4.681 3.121 9.167 6.729 12.776s8.094 5.851 12.776 6.729l0.39 0.049c0.829 0.146 1.658 0.244 2.487 0.293l1.755 0.049c2.487 0 4.925-0.39 7.168-1.122 3.608-1.122 7.022-3.121 9.899-5.998l145.896-145.896c0.146-0.146 0.293-0.293 0.439-0.39 0.098-0.146 0.244-0.293 0.39-0.439l96.695-96.695c0.146-0.146 0.293-0.293 0.439-0.39 0.098-0.146 0.244-0.293 0.39-0.439l6.729-6.729v526.287c0 7.412 3.316 14.043 8.533 18.53h0.049c4.242 3.657 9.752 5.851 15.799 5.851h487.619zM136.192 512l-87.43 87.43v-599.43h599.43l-87.43 87.43-51.736-51.736c-9.509-9.509-24.966-9.509-34.475 0s-9.509 24.966 0 34.475l51.736 51.736-63.049 63.049-51.736-51.736c-9.509-9.509-24.966-9.509-34.475 0s-9.509 24.966 0 34.475l51.736 51.736-63.049 63.049-51.736-51.736c-9.509-9.509-24.966-9.509-34.475 0s-9.509 24.966 0 34.475l51.736 51.736-63.049 63.049-51.736-51.736c-9.509-9.509-24.966-9.509-34.475 0s-9.509 24.966 0 34.475l51.736 51.736-63.049 63.049-51.736-51.736c-9.509-9.509-24.966-9.509-34.475 0s-9.509 24.966 0 34.475l51.736 51.736zM578.414 138.728l138.728-138.728h258.097v745.716l-180.76 180.76h-453.144v-550.668l41.204-41.204c0.146-0.146 0.293-0.293 0.439-0.39 0.098-0.146 0.244-0.293 0.39-0.439l96.695-96.695c0.146-0.146 0.293-0.293 0.439-0.39 0.098-0.146 0.244-0.293 0.39-0.439l96.695-96.695c0.146-0.146 0.293-0.293 0.439-0.39 0.098-0.146 0.244-0.293 0.39-0.439zM195.048 243.809c-53.833 0-97.524-43.691-97.524-97.524s43.691-97.524 97.524-97.524c53.833 0 97.524 43.691 97.524 97.524s-43.691 97.524-97.524 97.524zM195.048 195.048c26.917 0 48.762-21.845 48.762-48.762s-21.845-48.762-48.762-48.762c-26.917 0-48.762 21.845-48.762 48.762s21.845 48.762 48.762 48.762zM645.364 780.19c10.874 0.146 20.919-7.070 23.845-18.091l22.138-82.651c13.556-2.633 26.526-6.924 38.717-12.581l76.020 43.886c9.85 5.705 22.040 3.706 29.647-4.047 7.802-7.607 9.752-19.797 4.096-29.647l-40.131-69.534c8.728-12.873 15.75-27.063 20.724-42.179l79.872-21.406c10.971-2.926 18.188-12.922 18.091-23.845 0.098-10.874-7.119-20.87-18.091-23.845l-75.142-20.090c-3.462-16.335-9.314-31.744-17.067-45.982l40.862-70.802c5.705-9.85 3.706-22.040-4.096-29.598-7.607-7.802-19.797-9.801-29.647-4.096l-69.144 39.936c-12.971-7.753-27.014-13.897-41.838-18.042l-22.089-82.359c-2.926-11.020-12.971-18.237-23.845-18.091-10.874-0.146-20.919 7.070-23.845 18.091l-22.089 82.359c-12.581 3.511-24.527 8.436-35.791 14.58l-78.994-45.592c-9.85-5.705-22.040-3.706-29.647 4.047-7.802 7.607-9.752 19.797-4.047 29.647l45.349 78.604c-5.218 9.362-9.606 19.261-13.019 29.647l-92.843 24.869c-10.971 2.926-18.188 12.922-18.042 23.845-0.146 10.874 7.070 20.87 18.042 23.845l89.771 24.040c2.584 9.899 5.998 19.407 10.24 28.574l-48.664 84.261c-5.656 9.85-3.706 22.040 4.096 29.598 7.607 7.802 19.797 9.801 29.647 4.096l78.604-45.397c9.46 5.998 19.554 11.118 30.184 15.165l24.283 90.697c2.974 11.020 12.971 18.237 23.845 18.091zM748.154 593.871c-22.235 24.381-54.272 39.692-89.868 39.692-67.096 0-121.563-54.467-121.563-121.563s54.467-121.563 121.563-121.563c67.096 0 121.563 54.467 121.563 121.563 0 8.094-0.78 15.994-2.292 23.601-1.268 2.828-1.999 5.9-2.146 9.070-4.145 14.872-11.069 28.672-20.187 40.667-3.072 2.292-5.461 5.218-7.070 8.533z" />
<glyph unicode="&#xe923;" glyph-name="hs-folder" d="M414.476 877.714h0.146c2.487 0 4.925-0.39 7.168-1.122 3.608-1.122 7.022-3.121 9.899-5.998l90.405-90.405h380.002c13.458 0 24.381-10.923 24.381-24.381v-121.905h73.24c5.071 0 9.752-1.609 13.653-4.242l0.098-0.098c0.78-0.536 1.512-1.073 2.194-1.707l0.195-0.146c4.876-4.34 7.997-10.63 8.143-17.652v-0.926c-0.049-2.243-0.39-4.437-0.975-6.534l-143.555-535.698c-2.974-11.069-13.117-18.286-24.088-18.042-0.683-0.049-1.365-0.098-2.048-0.098h-829.050c-5.071 0-9.752 1.609-13.653 4.242l-0.098 0.098c-0.78 0.536-1.512 1.073-2.194 1.707l-0.195 0.146c-1.755 1.609-3.316 3.413-4.584 5.461-2.146 3.608-3.462 7.753-3.56 12.19v780.727c0 4.632 1.317 9.021 3.56 12.727 4.291 6.973 11.995 11.654 20.821 11.654h390.095zM967.826 585.143h-781.019l-130.633-487.619h781.019l130.633 487.619zM570.856 731.428l7.997-7.997c9.509-9.509 9.509-24.966 0-34.475s-24.966-9.509-34.475 0l-139.995 139.995h-355.621v-570.612l95.768 357.425c2.974 11.069 13.117 18.286 24.088 18.042 0.683 0.049 1.365 0.098 2.048 0.098h707.048v97.524h-306.859zM390.095 707.048c0-13.458-10.923-24.381-24.381-24.381h-195.048c-13.458 0-24.381 10.923-24.381 24.381s10.923 24.381 24.381 24.381h195.048c13.458 0 24.381-10.923 24.381-24.381z" />
<glyph unicode="&#xe924;" glyph-name="hs-close" d="M477.525 463.238l-470.406-470.357c-9.509-9.557-9.509-24.966 0-34.523 9.509-9.509 24.966-9.509 34.475 0l470.406 470.406 470.357-470.406c9.557-9.509 24.966-9.509 34.523 0 9.509 9.557 9.509 24.966 0 34.523l-470.406 470.357 470.406 470.406c9.509 9.509 9.509 24.966 0 34.475-9.557 9.509-24.966 9.509-34.523 0l-470.357-470.406-470.406 470.406c-9.509 9.509-24.966 9.509-34.475 0s-9.509-24.966 0-34.475l470.406-470.406z" />
<glyph unicode="&#xe925;" glyph-name="hs-list-categorie" d="M853.333 195.048h97.67c19.31-0.049 37.888-7.753 51.59-21.406 13.653-13.702 21.358-32.232 21.406-51.59v-97.914c-0.049-19.31-7.753-37.839-21.406-51.493-13.702-13.653-32.28-21.358-51.59-21.406h-97.865c-19.31 0.049-37.839 7.753-51.541 21.406-13.653 13.653-21.358 32.183-21.406 51.493v97.914c0.049 19.358 7.753 37.888 21.406 51.59 13.702 13.702 32.28 21.358 51.639 21.406h0.098zM950.857 146.286l-97.524-0.049c-6.437 0-12.629-2.536-17.213-7.119s-7.119-10.776-7.119-17.213v-97.524c0-6.437 2.536-12.629 7.119-17.213s10.776-7.119 17.213-7.119h97.524c6.437 0 12.629 2.536 17.213 7.119s7.119 10.776 7.119 17.213v97.524c0 6.437-2.536 12.629-7.119 17.213s-10.776 7.119-17.213 7.119v0.049zM126.147 48.762c-1.365-0.244-2.779-0.39-4.242-0.39-13.458 0-24.381 10.923-24.381 24.381v536.771c0 13.458 10.923 24.381 24.381 24.381s24.381-10.923 24.381-24.381v-121.905h512.39c13.458 0 24.381-10.923 24.381-24.381s-10.923-24.381-24.381-24.381h-512.39v-341.333h512.39c13.458 0 24.381-10.923 24.381-24.381s-10.923-24.381-24.381-24.381h-532.529zM853.333 585.143h97.67c19.31-0.049 37.888-7.753 51.59-21.406 13.653-13.702 21.358-32.232 21.406-51.59v-97.914c-0.049-19.31-7.753-37.839-21.406-51.493-13.702-13.653-32.28-21.358-51.59-21.406h-97.865c-19.31 0.049-37.839 7.753-51.541 21.406-13.653 13.653-21.358 32.183-21.406 51.493v97.914c0.049 19.358 7.753 37.888 21.406 51.59 13.702 13.702 32.28 21.358 51.639 21.406h0.098zM950.857 536.381l-97.524-0.049c-6.437 0-12.629-2.536-17.213-7.119s-7.119-10.776-7.119-17.213v-97.524c0-6.437 2.536-12.629 7.119-17.213s10.776-7.119 17.213-7.119h97.524c6.437 0 12.629 2.536 17.213 7.119s7.119 10.776 7.119 17.213v97.524c0 6.437-2.536 12.629-7.119 17.213s-10.776 7.119-17.213 7.119v0.049zM73.143 975.238h97.67c19.31-0.049 37.888-7.753 51.59-21.406 13.653-13.702 21.358-32.232 21.406-51.59v-97.914c-0.049-19.31-7.753-37.839-21.406-51.493-13.702-13.653-32.28-21.358-51.59-21.406h-97.865c-19.31 0.049-37.839 7.753-51.541 21.406-13.653 13.653-21.358 32.183-21.406 51.493v97.914c0.049 19.358 7.753 37.888 21.406 51.59 13.702 13.702 32.28 21.358 51.639 21.406h0.098zM170.667 926.476l-97.524-0.049c-6.437 0-12.629-2.536-17.213-7.119s-7.119-10.776-7.119-17.213v-97.524c0-6.437 2.536-12.629 7.119-17.213s10.776-7.119 17.213-7.119h97.524c6.437 0 12.629 2.536 17.213 7.119s7.119 10.776 7.119 17.213v97.524c0 6.437-2.536 12.629-7.119 17.213s-10.776 7.119-17.213 7.119v0.049z" />
<glyph unicode="&#xe926;" glyph-name="hs-filter" d="M201.914 605.481c-0.372 0.186-0.698 0.372-1.024 0.559l-137.402 79.313c-10.845 5.539-20.759 12.753-29.417 21.364-21.783 21.83-34.071 51.433-34.071 82.292v69.818c0 30.906 12.241 60.509 34.071 82.292 21.83 21.83 51.433 34.118 82.292 34.118h744.727c30.906 0 60.509-12.288 82.292-34.118 21.83-21.783 34.118-51.386 34.118-82.292l-0.047-69.818c0-30.86-12.288-60.463-34.071-82.292-8.657-8.611-18.572-15.825-29.417-21.364l-308.829-178.316v-485.143c0-0.465-0.047-0.931-0.047-1.35-0.047-2.281-0.419-4.561-1.164-6.842-4.003-12.241-17.175-18.897-29.37-14.895l-16.198 5.306c-0.838 0.14-1.629 0.372-2.467 0.652l-260.608 85.318c-10.193 3.351-16.524 13.079-16.012 23.319 0 0.186 0 0.419 0 0.652v446.743l-77.359 44.684zM339.968 124.434v0.093l218.577-71.494v463.36c-1.583 9.309 2.653 19.084 11.311 24.064l324.329 187.252c0.838 0.512 1.722 0.931 2.607 1.303 4.98 2.979 9.542 6.516 13.638 10.659 13.126 13.079 20.48 30.813 20.48 49.338l-0.047 69.818h0.093c0 18.525-7.354 36.305-20.48 49.385-12.8 12.847-30.068 20.154-48.175 20.433l-746.729 0.047c-18.199-0.233-35.654-7.54-48.547-20.48-13.126-13.079-20.48-30.86-20.48-49.385v-69.818c0-18.525 7.354-36.259 20.48-49.338 4.096-4.143 8.657-7.68 13.638-10.659 0.884-0.372 1.769-0.791 2.607-1.303l12.8-7.401c0.233-0.093 0.419-0.233 0.652-0.326l127.441-73.588c0.186-0.14 0.419-0.233 0.605-0.372l89.507-51.665c8.192-4.748 12.428-13.638 11.543-22.481v-442.833l14.15-4.608z" />
<glyph unicode="&#xe927;" glyph-name="hs-lab" d="M341.333 926.476h-73.143c-13.458 0-24.381 10.923-24.381 24.381s10.923 24.381 24.381 24.381h97.524c13.458 0 24.381-10.923 24.381-24.381v-290.865c0.049-4.194-1.024-8.436-3.267-12.337l-331.678-574.513c-11.069-19.115-7.899-43.252 7.704-58.856 9.167-9.167 21.553-14.287 34.523-14.287v-0.146c0.829 0.098 1.658 0.146 2.536 0.146h826.563c12.922 0 25.356 5.12 34.475 14.287 15.604 15.604 18.773 39.741 7.753 58.856v0l-331.678 574.513c-2.243 3.901-3.316 8.143-3.267 12.337v290.865c0 13.458 10.923 24.381 24.381 24.381h97.524c13.41 0 24.381-10.923 24.381-24.381s-10.971-24.381-24.381-24.381h-73.143v-260.096l328.704-569.344c21.748-38.132 15.311-86.162-15.799-117.224-17.652-17.701-41.448-27.892-66.414-28.526-0.39-0.049-0.829-0.049-1.268-0.049h-827.831c-0.878 0-1.707 0.049-2.536 0.146v-0.146c-25.893 0-50.712 10.289-68.998 28.574-31.061 31.061-37.498 79.092-15.75 117.224v0l328.704 569.344v260.096zM807.205 97.524c13.458 0 24.381 10.923 24.381 24.381s-10.923 24.381-24.381 24.381h-590.799c-13.458 0-24.381-10.923-24.381-24.381s10.923-24.381 24.381-24.381h590.799zM707.048 243.809c13.458 0 24.381 10.923 24.381 24.381s-10.923 24.381-24.381 24.381h-390.095c-13.458 0-24.381-10.923-24.381-24.381s10.923-24.381 24.381-24.381h390.095z" />
<glyph unicode="&#xe928;" glyph-name="hs-save" d="M853.48 975.238c2.487 0 4.925-0.39 7.168-1.122 3.608-1.122 7.022-3.121 9.899-5.998l146.334-146.286c2.292-2.341 4.047-5.022 5.266-7.899v-0.049c1.219-2.877 1.853-6.046 1.853-9.314v-828.952c0-4.047-0.975-7.851-2.731-11.215v-0.049c-4.096-7.802-12.239-13.117-21.65-13.117h-975.238c-6.729 0-12.824 2.731-17.213 7.119l-0.049 0.049c-4.389 4.389-7.119 10.484-7.119 17.213v975.238c0 9.411 5.315 17.554 13.117 21.65h0.049c3.365 1.755 7.168 2.731 11.215 2.731h829.099zM195.048 926.476h-146.286v-926.476h926.476v794.478l-131.998 131.998h-160.573v-268.19c0-9.85-5.851-18.383-14.287-22.187l-0.049-0.049c-3.072-1.365-6.485-2.146-10.045-2.146h-438.857c-3.56 0-6.973 0.78-10.045 2.146l-0.049 0.049c-8.436 3.803-14.287 12.337-14.287 22.187v268.19zM755.81 536.381c8.826 0 16.53-4.681 20.821-11.654 2.243-3.706 3.56-8.094 3.56-12.727v-438.857c0-4.632-1.317-9.021-3.56-12.727-4.291-6.973-11.995-11.654-20.821-11.654h-536.381c-8.826 0-16.53 4.681-20.821 11.654-2.243 3.706-3.56 8.094-3.56 12.727v438.857c0 4.632 1.317 9.021 3.56 12.727 4.291 6.973 11.995 11.654 20.821 11.654h536.381zM243.81 487.619v-390.095h487.619v390.095h-487.619zM658.286 195.048h-341.333c-13.458 0-24.381 10.923-24.381 24.381s10.923 24.381 24.381 24.381h341.333c13.458 0 24.381-10.923 24.381-24.381s-10.923-24.381-24.381-24.381zM658.286 341.333h-341.333c-13.458 0-24.381 10.923-24.381 24.381s10.923 24.381 24.381 24.381h341.333c13.458 0 24.381-10.923 24.381-24.381s-10.923-24.381-24.381-24.381zM243.81 926.476v-243.81h390.095v243.81h-390.095zM560.518 877.714c0.098 0 0.146 0 0.244 0 6.729 0 12.824-2.731 17.213-7.119 4.437-4.437 7.168-10.533 7.168-17.262 0-0.098 0-0.146 0-0.244v-97.036c0-0.098 0-0.146 0-0.244 0-6.729-2.731-12.824-7.168-17.213-4.389-4.437-10.484-7.168-17.213-7.168-0.098 0-0.146 0-0.244 0h-97.036c-0.098 0-0.146 0-0.244 0-6.729 0-12.824 2.731-17.213 7.168-4.437 4.389-7.168 10.484-7.168 17.213 0 0.098 0 0.146 0 0.244v97.036c0 0.098 0 0.146 0 0.244 0 6.729 2.731 12.824 7.168 17.262 4.389 4.389 10.484 7.119 17.213 7.119 0.098 0 0.146 0 0.244 0h97.036zM487.619 780.19h48.762v48.762h-48.762v-48.762z" />
<glyph unicode="&#xe929;" glyph-name="hs-settings" d="M731.429 97.524h268.19c13.458 0 24.381 10.923 24.381 24.381s-10.923 24.381-24.381 24.381h-268.19v121.905c0 13.458-10.923 24.381-24.381 24.381s-24.381-10.923-24.381-24.381v-292.571c0-13.458 10.923-24.381 24.381-24.381s24.381 10.923 24.381 24.381v121.905zM633.905 121.905c0 13.458-10.923 24.381-24.381 24.381h-585.143c-13.458 0-24.381-10.923-24.381-24.381s10.923-24.381 24.381-24.381h585.143c13.458 0 24.381 10.923 24.381 24.381zM292.571 487.619h-268.19c-13.458 0-24.381-10.923-24.381-24.381s10.923-24.381 24.381-24.381h268.19v-121.905c0-13.458 10.923-24.381 24.381-24.381s24.381 10.923 24.381 24.381v292.571c0 13.458-10.923 24.381-24.381 24.381s-24.381-10.923-24.381-24.381v-121.905zM390.095 463.238c0-13.458 10.923-24.381 24.381-24.381h585.143c13.458 0 24.381 10.923 24.381 24.381s-10.923 24.381-24.381 24.381h-585.143c-13.458 0-24.381-10.923-24.381-24.381zM731.429 780.19h268.19c13.458 0 24.381 10.923 24.381 24.381s-10.923 24.381-24.381 24.381h-268.19v121.905c0 13.458-10.923 24.381-24.381 24.381s-24.381-10.923-24.381-24.381v-292.571c0-13.458 10.923-24.381 24.381-24.381s24.381 10.923 24.381 24.381v121.905zM633.905 804.571c0 13.458-10.923 24.381-24.381 24.381h-585.143c-13.458 0-24.381-10.923-24.381-24.381s10.923-24.381 24.381-24.381h585.143c13.458 0 24.381 10.923 24.381 24.381z" />
<glyph unicode="&#xe92a;" glyph-name="hs-chat" d="M975.043 682.667v-648.046l-104.692 104.692c-2.341 2.341-5.022 4.096-7.899 5.315h-0.098c-2.877 1.219-5.998 1.853-9.314 1.853h-560.469v121.612c0 13.507-10.971 24.478-24.478 24.478s-24.478-10.971-24.478-24.478v-146.091c0-13.507 10.971-24.478 24.478-24.478h574.805l139.118-139.118c4.827-4.827 11.118-7.217 17.408-7.168h0.098c13.507 0 24.478 10.971 24.478 24.478v731.429c0 13.507-10.971 24.478-24.478 24.478h-146.091c-13.507 0-24.478-10.971-24.478-24.478s10.971-24.478 24.478-24.478h121.612zM-0.195 950.955c0 13.507 10.971 24.478 24.478 24.478h731.429c13.507 0 24.478-10.971 24.478-24.478v-585.143c0-13.507-10.971-24.478-24.478-24.478h-574.805l-139.118-139.118c-4.827-4.827-11.118-7.217-17.408-7.168h-0.098c-13.507 0-24.478 10.971-24.478 24.478v731.429zM731.234 390.29v536.186h-682.472v-648.046l104.692 104.692c2.341 2.341 5.022 4.096 7.899 5.315h0.098c2.877 1.219 5.998 1.853 9.314 1.853h560.469z" />
<glyph unicode="&#xe92b;" glyph-name="hs-container" d="M854.65 48.713c-0.585 0.049-1.17 0.049-1.755 0.049-13.458 0-24.381-10.923-24.381-24.381v-24.381h-72.704c-13.458 0-24.381-10.923-24.381-24.381s10.923-24.381 24.381-24.381h242.883c13.458 0 24.381 10.923 24.381 24.381s-10.923 24.381-24.381 24.381h-72.216v24.381c0 13.458-10.923 24.381-24.381 24.381h-45.739c-0.585 0-1.17 0-1.707-0.049zM657.847-48.762c13.458 0 24.381 10.923 24.381 24.381s-10.923 24.381-24.381 24.381h-97.085c-13.458 0-24.381-10.923-24.381-24.381s10.923-24.381 24.381-24.381h97.085zM170.667 975.238h146.286c13.458 0 24.381-10.923 24.381-24.381 0-0.146 0-0.341 0-0.488v-184.466l41.643-41.643c2.877-2.877 4.876-6.29 5.998-9.899 0.731-2.243 1.122-4.681 1.122-7.168v-87.576l90.405-90.405c2.877-2.877 4.876-6.29 5.998-9.899 0.731-2.243 1.122-4.681 1.122-7.168v-463.384c0-25.844-10.289-50.664-28.574-68.949-17.554-17.554-41.106-27.746-65.877-28.526-0.536-0.049-1.024-0.049-1.56-0.049h-294.083c-25.844 0-50.664 10.289-68.949 28.574s-28.574 43.106-28.574 68.949v463.384c0 2.487 0.39 4.925 1.122 7.168 1.122 3.608 3.121 7.022 5.998 9.899l90.405 90.405v87.576c0 2.487 0.39 4.925 1.122 7.168 1.122 3.608 3.121 7.022 5.998 9.899l41.643 41.643v184.466c0 0.146 0 0.341 0 0.488 0 13.458 10.923 24.381 24.381 24.381zM292.571 926.476h-97.524v-170.667c0-3.267-0.634-6.437-1.853-9.314v-0.049c-1.219-2.877-2.974-5.559-5.266-7.899l-41.643-41.594v-87.43c0-3.267-0.634-6.437-1.853-9.314v-0.049c-1.219-2.877-2.974-5.559-5.266-7.899l-90.405-90.356v-453.144c0-12.922 5.12-25.356 14.287-34.475 9.118-9.167 21.553-14.287 34.475-14.287h292.571c12.922 0 25.356 5.12 34.475 14.287 9.167 9.118 14.287 21.553 14.287 34.475v453.144l-90.405 90.356c-2.292 2.341-4.047 5.022-5.266 7.899v0.049c-1.219 2.877-1.853 6.046-1.853 9.314v87.43l-41.643 41.594c-2.292 2.341-4.047 5.022-5.266 7.899v0.049c-1.219 2.877-1.853 6.046-1.853 9.314v170.667zM706.609 975.238h0.439c13.458 0 24.381-10.923 24.381-24.381v-104.497l15.458-26.77c3.121-4.194 4.925-9.362 4.876-14.824 0.049-2.048-0.195-4.145-0.731-6.144l-49.64-282.088 69.534-120.393c3.365-4.34 5.169-9.752 5.12-15.214 0.049-5.461-1.755-10.825-5.12-15.214l-88.259-152.82v-139.752c0-13.458-10.923-24.381-24.381-24.381h-97.524c-13.458 0-24.381 10.923-24.381 24.381s10.923 24.381 24.381 24.381h73.143v121.954c0 1.902 0.244 3.852 0.683 5.754l0.049 0.049c0.536 2.292 1.414 4.437 2.584 6.437l86.162 149.211-68.072 117.955c-2.487 3.803-3.852 8.338-3.852 13.117 0 1.658 0.146 3.316 0.488 4.974l49.835 283.16-15.848 27.502c-2.292 3.998-3.365 8.338-3.267 12.629 0 0.146 0 0.293 0 0.439v85.772h-268.19c-13.458 0-24.381 10.923-24.381 24.381s10.923 24.381 24.381 24.381h292.133zM926.476 950.808v-97.475c0 13.458-10.923 24.381-24.381 24.381s-24.381-10.923-24.381-24.381v-121.905h-73.143c-13.458 0-24.381-10.923-24.381-24.381v-195.048c0-13.458 10.923-24.381 24.381-24.381s24.381 10.923 24.381 24.381v170.667h146.286v-487.619h-219.429c-13.458 0-24.381-10.923-24.381-24.381s10.923-24.381 24.381-24.381h243.81c13.458 0 24.381 10.923 24.381 24.381v536.381c0 13.458-10.923 24.381-24.381 24.381h-24.381v219.38c0 13.458-10.923 24.381-24.381 24.381s-24.381-10.923-24.381-24.381z" />
<glyph unicode="&#xe92c;" glyph-name="hs-fw-maximize" d="M999.619 828.952c3.755 0 7.314-0.829 10.484-2.389 8.241-3.901 13.897-12.288 13.897-21.992v-682.667c0-2.341-0.341-4.681-1.024-6.973-1.317-4.486-3.95-8.533-7.509-11.557-1.609-1.365-3.365-2.536-5.266-3.462h-0.098c-3.17-1.56-6.729-2.389-10.484-2.389h-975.238c-3.608 0-7.168 0.78-10.435 2.341l-0.049 0.049c-8.241 3.901-13.897 12.288-13.897 21.992v682.667c0 9.704 5.656 18.091 13.897 21.992 3.17 1.56 6.729 2.389 10.484 2.389h975.238zM48.762 780.19v-633.905h926.476v633.905h-926.476z" />
<glyph unicode="&#xe92d;" glyph-name="hs-fw-minimize" d="M1024 121.905c0 13.458-10.923 24.381-24.381 24.381h-975.238c-13.458 0-24.381-10.923-24.381-24.381s10.923-24.381 24.381-24.381h975.238c13.458 0 24.381 10.923 24.381 24.381z" />
<glyph unicode="&#xe92e;" glyph-name="hs-tab-list" d="M998.693-48.762h-974.312c-13.458 0-24.381 10.923-24.381 24.381v780.19c0 13.458 10.923 24.381 24.381 24.381h975.238c13.458 0 24.381-10.923 24.381-24.381v-780.19c0-13.458-10.923-24.381-24.381-24.381h-0.926zM48.762 731.428v-731.429h926.476v731.429h-926.476zM950.857 828.952h-877.714c-13.458 0-24.381 10.923-24.381 24.381s10.923 24.381 24.381 24.381h877.714c13.458 0 24.381-10.923 24.381-24.381s-10.923-24.381-24.381-24.381zM902.095 926.476h-780.19c-13.458 0-24.381 10.923-24.381 24.381s10.923 24.381 24.381 24.381h780.19c13.458 0 24.381-10.923 24.381-24.381s-10.923-24.381-24.381-24.381z" />
<glyph unicode="&#xe92f;" glyph-name="hs-arrow-up" d="M512 672.568l470.406-470.406c9.509-9.509 24.966-9.509 34.475 0 9.509 9.557 9.509 24.966 0 34.523l-487.619 487.619c-4.681 4.535-10.728 7.022-17.262 7.119v0c-6.242 0-12.483-2.389-17.262-7.119l-0.146-0.195-487.473-487.424c-9.509-9.557-9.509-24.966 0-34.523 9.557-9.509 24.966-9.509 34.523 0l470.357 470.406z" />
<glyph unicode="&#xe930;" glyph-name="hs-arrow-down" d="M512 253.903l470.406 470.406c9.509 9.509 24.966 9.509 34.475 0 9.509-9.557 9.509-24.966 0-34.523l-487.619-487.619c-4.681-4.535-10.728-7.022-17.262-7.119v0c-6.242 0-12.483 2.389-17.262 7.119l-0.146 0.195-487.473 487.424c-9.509 9.557-9.509 24.966 0 34.523 9.557 9.509 24.966 9.509 34.523 0l470.357-470.406z" />
<glyph unicode="&#xe931;" glyph-name="hs-arrow-left" d="M302.67 463.238l470.406-470.406c9.509-9.509 9.509-24.966 0-34.475-9.557-9.509-24.966-9.509-34.523 0l-487.619 487.619c-4.535 4.681-7.022 10.728-7.119 17.262v0c0 6.242 2.389 12.483 7.119 17.262l0.195 0.146 487.424 487.473c9.557 9.509 24.966 9.509 34.523 0 9.509-9.557 9.509-24.966 0-34.523l-470.406-470.357z" />
<glyph unicode="&#xe932;" glyph-name="hs-arrow-right" d="M721.335 463.238l-470.406-470.406c-9.509-9.509-9.509-24.966 0-34.475 9.557-9.509 24.966-9.509 34.523 0l487.619 487.619c4.535 4.681 7.022 10.728 7.119 17.262v0c0 6.242-2.389 12.483-7.119 17.262l-0.195 0.146-487.424 487.473c-9.557 9.509-24.966 9.509-34.523 0-9.509-9.557-9.509-24.966 0-34.523l470.406-470.357z" />
<glyph unicode="&#xe933;" glyph-name="hs-smartmenu" d="M487.619 853.333c0 13.458-10.923 24.381-24.381 24.381s-24.381-10.923-24.381-24.381v-97.524c0-13.458 10.923-24.381 24.381-24.381s24.381 10.923 24.381 24.381v97.524zM585.143 853.333c0 13.458-10.923 24.381-24.381 24.381s-24.381-10.923-24.381-24.381v-97.524c0-13.458 10.923-24.381 24.381-24.381s24.381 10.923 24.381 24.381v97.524zM560.762 731.428c13.458 0 24.381 10.923 24.381 24.381s-10.923 24.381-24.381 24.381h-97.524c-13.458 0-24.381-10.923-24.381-24.381s10.923-24.381 24.381-24.381h97.524zM560.762 828.952c13.458 0 24.381 10.923 24.381 24.381s-10.923 24.381-24.381 24.381h-97.524c-13.458 0-24.381-10.923-24.381-24.381s10.923-24.381 24.381-24.381h97.524zM487.619 512c0 13.458-10.923 24.381-24.381 24.381s-24.381-10.923-24.381-24.381v-97.524c0-13.458 10.923-24.381 24.381-24.381s24.381 10.923 24.381 24.381v97.524zM585.143 512c0 13.458-10.923 24.381-24.381 24.381s-24.381-10.923-24.381-24.381v-97.524c0-13.458 10.923-24.381 24.381-24.381s24.381 10.923 24.381 24.381v97.524zM560.762 390.095c13.458 0 24.381 10.923 24.381 24.381s-10.923 24.381-24.381 24.381h-97.524c-13.458 0-24.381-10.923-24.381-24.381s10.923-24.381 24.381-24.381h97.524zM560.762 487.619c13.458 0 24.381 10.923 24.381 24.381s-10.923 24.381-24.381 24.381h-97.524c-13.458 0-24.381-10.923-24.381-24.381s10.923-24.381 24.381-24.381h97.524zM487.619 219.428c0 13.458-10.923 24.381-24.381 24.381s-24.381-10.923-24.381-24.381v-97.524c0-13.458 10.923-24.381 24.381-24.381s24.381 10.923 24.381 24.381v97.524zM585.143 219.428c0 13.458-10.923 24.381-24.381 24.381s-24.381-10.923-24.381-24.381v-97.524c0-13.458 10.923-24.381 24.381-24.381s24.381 10.923 24.381 24.381v97.524zM560.762 97.524c13.458 0 24.381 10.923 24.381 24.381s-10.923 24.381-24.381 24.381h-97.524c-13.458 0-24.381-10.923-24.381-24.381s10.923-24.381 24.381-24.381h97.524zM560.762 195.048c13.458 0 24.381 10.923 24.381 24.381s-10.923 24.381-24.381 24.381h-97.524c-13.458 0-24.381-10.923-24.381-24.381s10.923-24.381 24.381-24.381h97.524z" />
<glyph unicode="&#xe934;" glyph-name="hs-upgrade" d="M975.287 461.483c-0.049 0.585-0.049 1.17-0.049 1.755 0 13.458 10.923 24.381 24.381 24.381s24.332-10.923 24.381-24.332v0-0.049c0-135.802-53.979-265.996-149.943-362.008-199.826-199.778-524.288-199.778-724.114 0-41.935 41.935-76.117 90.697-101.181 143.994v-172.081c0-13.458-10.923-24.381-24.381-24.381s-24.381 10.923-24.381 24.381v242.347c-0.049 0.536-0.049 1.024-0.049 1.56 0 13.458 10.923 24.381 24.381 24.381h243.858c13.458 0 24.381-10.923 24.381-24.381s-10.923-24.381-24.381-24.381h-186.953c23.259-58.661 58.319-112.152 103.18-156.965 180.809-180.858 474.356-180.858 655.165 0 86.504 86.455 135.266 203.532 135.704 325.778zM585.143 170.715c0 13.41-10.923 24.332-24.332 24.332h-97.621c-13.41 0-24.332-10.923-24.332-24.332 0-13.458 10.923-24.381 24.332-24.381h97.621c13.41 0 24.332 10.923 24.332 24.381zM512.049 731.38c6.242 0 12.483-2.341 17.213-7.119 0.39-0.341 0.731-0.731 1.073-1.122l290.231-290.231c5.12-4.437 8.436-11.020 8.436-18.383 0-2.438-0.39-4.779-1.073-7.022-1.073-3.755-3.121-7.314-6.095-10.289-5.218-5.218-12.288-7.558-19.115-7.070h-168.814v-121.905c0-13.458-10.923-24.381-24.332-24.381h-195.145c-13.41 0-24.332 10.923-24.332 24.381 0 13.41 10.923 24.332 24.332 24.332h170.764v120.052c0 0.634-0.049 1.268-0.049 1.902 0 5.461 1.804 10.533 4.876 14.629 4.437 5.949 11.557 9.801 19.554 9.801 0.731 0 1.463-0.049 2.194-0.098h133.998l-233.716 233.716-233.765-233.716h136.29c13.458 0 24.332-10.923 24.332-24.332 0-13.458-10.874-24.381-24.332-24.381h-193.243c-6.827-0.488-13.848 1.853-19.115 7.070-2.926 2.974-4.974 6.534-6.095 10.289-0.683 2.243-1.024 4.584-1.024 7.022 0 7.363 3.267 13.946 8.436 18.383l290.231 290.231c0.341 0.39 0.683 0.78 1.024 1.122 4.779 4.779 11.020 7.119 17.262 7.119zM0 463.287v0c0 135.802 53.931 265.996 149.943 362.057 199.826 199.778 524.288 199.778 724.114 0 41.935-41.935 76.117-90.697 101.181-143.994v171.983c0 13.458 10.923 24.381 24.381 24.381s24.381-10.923 24.381-24.381v-242.249c0.049-0.536 0.049-1.024 0.049-1.56 0-13.458-10.923-24.381-24.381-24.381h-243.858c-13.458 0-24.381 10.923-24.381 24.381s10.923 24.381 24.381 24.381h186.953c-23.259 58.661-58.319 112.152-103.18 156.965-180.809 180.858-474.356 180.858-655.165 0-86.504-86.455-135.266-203.581-135.704-325.876 0.049-0.585 0.049-1.17 0.049-1.755 0-13.458-10.923-24.381-24.381-24.381s-24.381 10.923-24.381 24.381v0.049z" />
<glyph unicode="&#xe935;" glyph-name="hs-training1" d="M686.86 487.619c10.045 28.379 37.108 48.762 68.949 48.762s58.904-20.382 68.998-48.762h174.811c13.458 0 24.381-10.923 24.381-24.381v-341.333c0-13.458-10.923-24.381-24.381-24.381h-184.954l104.692-104.692c9.509-9.509 9.509-24.966 0-34.475s-24.966-9.509-34.475 0l-129.073 129.073-129.073-129.024c-9.509-9.557-24.966-9.557-34.475 0-9.509 9.509-9.509 24.966 0 34.475l104.692 104.643h-184.954c-2.682 0-5.413 0.439-7.948 1.317-3.413 1.17-6.534 3.121-9.070 5.608-2.682 2.633-4.73 5.851-5.998 9.362-0.878 2.536-1.317 5.218-1.365 7.948v341.48c0 13.458 10.923 24.381 24.381 24.381h174.86zM438.857 339.041c-99.328-10.581-192.61-54.808-263.899-126.098-70.754-70.754-114.834-163.206-125.854-261.705h-48.957c11.166 111.47 60.465 216.21 140.386 296.131 63.244 63.244 142.092 107.325 227.523 128.536-28.867 14.726-56.027 34.133-80.165 58.319-123.709 123.709-123.709 324.559 0 448.219 123.709 123.709 324.51 123.709 448.219 0 80.603-80.555 108.69-193.877 84.261-297.301h-50.274c25.502 90.453 2.731 191.732-68.413 262.875-104.692 104.692-274.676 104.692-379.368 0s-104.692-274.676 0-379.368c33.548-33.548 73.874-56.369 116.541-68.364v-61.245zM536.381 146.286h438.857v292.571h-438.857v-292.571z" />
<glyph unicode="&#xe936;" glyph-name="hs-check" d="M7.168 324.072l243.81-243.81c9.509-9.509 24.966-9.509 34.475 0l0.341 0.39 731.087 731.038c9.509 9.557 9.509 24.966 0 34.523-9.509 9.509-24.966 9.509-34.475 0l-714.216-714.216-226.548 226.597c-9.509 9.509-24.966 9.509-34.475 0-9.557-9.557-9.557-24.966 0-34.523z" />
<glyph unicode="&#xe937;" glyph-name="hs-spareparts" d="M828.339 308.684c-22.208 10.944-46.399 17.408-71.103 19.072l-29.632-55.103c-11.776-1.536-23.36-4.608-34.303-9.152l-53.183 32.831c-20.608-13.76-38.335-31.424-52.095-52.031l32.895-53.247c-4.544-10.944-7.68-22.464-9.216-34.239l-55.039-29.696c1.6-24.704 8.064-48.831 19.072-71.039l62.463 1.856c7.232-9.472 15.68-17.92 25.152-25.152l-1.856-62.463c22.208-11.008 46.335-17.472 71.039-19.072l29.696 55.039c11.776 1.536 23.296 4.672 34.239 9.216l53.247-32.895c20.608 13.76 38.271 31.488 52.031 52.095l-32.831 53.183c4.544 10.944 7.616 22.528 9.152 34.303l55.039 29.632c-1.6 24.704-8.064 48.895-19.008 71.103l-62.527-1.856c-7.232 9.408-15.68 17.856-25.088 25.088l1.856 62.527zM366.97 695.878c-31.168 4.608-62.783 4.608-93.951 0l-27.328-70.591c-16.32-4.928-32.064-11.456-47.103-19.52l-69.183 30.592c-25.28-18.752-47.679-41.087-66.431-66.367l30.592-69.247c-8.064-15.040-14.592-30.784-19.52-47.103l-70.591-27.328c-4.608-31.168-4.608-62.783 0-93.951l70.591-27.328c4.928-16.32 11.456-32.064 19.52-47.103l-30.592-69.183c18.752-25.28 41.151-47.679 66.431-66.431l69.183 30.592c15.040-8.064 30.784-14.592 47.103-19.52l27.328-70.591c31.168-4.608 62.783-4.608 93.951 0l27.328 70.591c16.32 4.928 32.064 11.456 47.103 19.52l69.183-30.592c25.28 18.752 47.679 41.151 66.431 66.431l-30.592 69.183c8.064 15.040 14.592 30.784 19.52 47.103l70.591 27.328c4.608 31.168 4.608 62.783 0 93.951l-70.591 27.328c-4.928 16.32-11.456 32.064-19.52 47.103l30.592 69.247c-18.752 25.28-41.151 47.615-66.431 66.367l-69.183-30.592c-15.040 8.064-30.784 14.592-47.103 19.52l-27.328 70.591zM761.46 201.358c34.175-9.152 54.463-44.287 45.311-78.463s-44.287-54.463-78.463-45.311c-34.175 9.152-54.463 44.351-45.311 78.463 9.152 34.175 44.351 54.463 78.463 45.311zM319.995 509.385c71.807 0 130.046-58.239 130.046-130.046s-58.239-130.046-130.046-130.046c-71.807 0-130.046 58.239-130.046 130.046s58.239 130.046 130.046 130.046zM665.014 525.769l21.824 21.76c1.6 1.664 1.6 4.288 0 5.952l-84.607 84.607c-1.664 1.6-4.288 1.6-5.952 0l-21.76-21.824c-4.544-4.544-4.544-11.968 0-16.512l73.983-73.983c4.544-4.544 11.968-4.544 16.512 0zM732.085 598.728l-84.607 84.607c-1.664 1.6-4.288 1.6-5.952 0l-18.688-18.752c-1.664-1.6-1.664-4.288 0-5.888l84.607-84.607c1.6-1.664 4.288-1.664 5.888 0l18.752 18.688c1.6 1.664 1.6 4.288 0 5.952zM777.332 643.975l-84.607 84.607c-1.664 1.6-4.288 1.6-5.888 0l-18.752-18.752c-1.6-1.6-1.6-4.288 0-5.888l84.607-84.607c1.6-1.6 4.288-1.6 5.888 0l18.752 18.752c1.6 1.6 1.6 4.224 0 5.888zM1021.744 802.821l-170.173 170.173c-3.008 3.008-7.872 3.008-10.88 0l-34.367-34.431c-3.008-2.944-3.008-7.808 0-10.816l39.807-39.807-135.742-135.806 90.495-90.495 135.806 135.742 39.807-39.807c3.008-3.008 7.872-3.008 10.816 0l34.431 34.367c3.008 3.008 3.008 7.872 0 10.88zM670.838 942.083l-123.582 33.151-90.559-90.495 33.151-123.646 123.646-33.151 90.495 90.559-33.151 123.582zM580.343 904.131c28.992 0 52.543-23.552 52.543-52.543s-23.552-52.543-52.543-52.543c-28.992 0-52.543 23.552-52.543 52.543s23.552 52.543 52.543 52.543z" />
<glyph unicode="&#xe938;" glyph-name="hs-service2" d="M240.64 46.918h-177.536c-34.88 0-63.104 28.16-63.104 62.912v125.824c0 12.672 3.712 24.448 10.176 34.304 6.848 13.312 18.816 23.936 34.304 28.672l180.672 54.976c3.008 0.896 6.144 1.536 9.152 1.984 14.528 4.352 29.888 6.656 45.824 6.656 20.8 0 40.576-3.968 58.752-11.2 20.992-4.8 43.136-12.096 65.408-21.952 35.264-15.488 65.664-34.944 88.384-55.232l155.072 23.744c32.512 4.992 63.040-17.344 68.032-49.792s-17.408-62.848-49.984-67.84l-139.84-21.376 117.248-31.296c5.824-1.664 11.2-4.288 15.808-7.808l259.712 193.216c26.048 19.264 62.912 13.952 82.304-11.968s14.016-62.72-11.968-82.048l-324.992-241.6c-6.656-4.992-14.080-8.256-21.632-10.048-11.008-12.8-28.8-18.88-46.144-14.272l-348.544 93.184c-1.216 0.256-2.368 0.64-3.52 1.024-1.152-0.064-2.368-0.064-3.584-0.064zM772.288 401.222l-69.12-68.928c-5.824 0-11.712 0.128-17.536 0.384l96.64 96.384-9.984-27.84zM1011.648 704.134l-360.576-359.488-4.736 13.184 352.064 350.976 13.248-4.672zM964.096 721.030l-329.984-329.024-4.736 13.184 321.472 320.512 13.248-4.672zM955.392 473.030l5.12-10.752c-18.88-25.344-41.472-47.872-66.944-66.688l-10.752 5.12 72.576 72.32zM509.056 395.91c-3.52 2.56-6.848 5.12-10.176 7.808l158.976 158.528c4.16-2.048 8.448-3.712 12.864-5.12l-161.664-161.216zM940.48 504.518l-89.28-88.96-12.16 5.76 95.616 95.36 5.824-12.16zM474.368 425.67c-11.52 11.392-22.144 23.552-31.808 36.608l44.096 92.864c-2.496 5.504-4.928 11.2-6.976 16.896l-97.088 34.56c-4.672 31.296-4.672 63.040 0 94.336l97.088 34.56c2.048 5.696 4.48 11.392 6.976 16.896l-44.096 92.864c18.88 25.408 41.472 47.872 66.944 66.688l93.12-43.968c5.504 2.56 11.2 4.928 16.96 6.976l34.624 96.832c31.424 4.608 63.232 4.608 94.656 0l34.624-96.832c5.76-2.048 11.456-4.416 16.96-6.976l93.12 43.968c13.12-9.6 25.344-20.224 36.8-31.68l-156.16-155.648c-18.432 18.816-44.16 30.528-72.64 30.528-56.128 0-101.76-45.44-101.76-101.376 0-28.416 11.776-54.080 30.656-72.448l-156.096-155.648zM807.424 436.294l-6.976 3.264c-4.352-1.984-8.768-3.84-13.248-5.632l134.848 134.464c-1.728-4.48-3.648-8.896-5.632-13.248l3.328-6.912-112.32-111.936zM736.768 558.598l-123.904-123.456c-3.392 1.408-6.848 2.88-10.24 4.416l-6.208-2.88 116.736 116.352c8.192 0.96 16.128 2.816 23.616 5.568zM954.88 583.238l-27.968-9.984 96.704 96.384c0.256-5.824 0.384-11.712 0.384-17.472l-69.12-68.928zM796.992 618.694c2.752 7.424 4.672 15.36 5.632 23.488l116.736 116.416-2.944-6.208c1.536-3.392 3.072-6.784 4.416-10.24l-123.84-123.456zM798.464 684.486c-1.408 4.416-3.072 8.704-5.056 12.8l158.912 158.464c2.752-3.264 5.312-6.592 7.872-10.048l-161.728-161.216z" />
<glyph unicode="&#xe939;" glyph-name="hs-clarification" d="M195.048 24.381c0 40.375-32.768 73.143-73.143 73.143s-73.143-32.768-73.143-73.143c0-40.375 32.768-73.143 73.143-73.143s73.143 32.768 73.143 73.143zM731.429 24.381c0 40.375-32.768 73.143-73.143 73.143s-73.143-32.768-73.143-73.143c0-40.375 32.768-73.143 73.143-73.143s73.143 32.768 73.143 73.143zM195.048 902.095c0 40.375-32.768 73.143-73.143 73.143s-73.143-32.768-73.143-73.143v-682.667c0-40.375 32.768-73.143 73.143-73.143s73.143 32.768 73.143 73.143v682.667zM747.666 475.867c-74.167-45.641-128.244-118.004-150.821-202.411-6.875-25.6-10.728-51.931-11.508-78.409h-0.195v-48.762h146.286v37.937h0.39c-0.098 17.31 2.146 34.572 6.632 51.298 11.654 43.593 38.034 81.53 74.313 107.666 5.12 3.17 10.142 6.437 15.019 9.801 0.488 0.244 0.926 0.536 1.365 0.78l-0.049 0.146c91.185 63.537 146.139 167.936 146.139 279.991 0 188.367-152.966 341.333-341.333 341.333s-341.333-152.966-341.333-341.333c0-50.81 11.362-100.986 33.207-146.871l132.34 63.098c-12.483 26.136-18.968 54.76-18.968 83.773 0 107.471 87.284 194.755 194.755 194.755s194.755-87.284 194.755-194.755c0-62.952-30.379-121.661-80.994-158.037z" />
<glyph unicode="&#xe93a;" glyph-name="hs-my-data" d="M379.368-31.354c-272.92 73.143-435.151 354.109-362.008 627.078s354.109 435.2 627.078 362.057c272.92-73.143 435.151-354.109 362.008-627.078s-354.109-435.2-627.078-362.057zM837.827 133.9c-10.24 13.019-21.26 25.454-33.012 37.205-161.646 161.694-424.18 161.694-585.826 0-11.752-11.752-22.772-24.186-33.012-37.254 55.345-54.906 125.318-96.597 206.019-118.199 164.669-44.13 332.605 6.437 445.83 118.248zM871.229 170.569c40.131 49.201 70.754 107.471 88.259 172.715 66.17 247.028-80.652 501.321-327.68 567.491-246.979 66.17-501.272-80.603-567.442-327.631-39.985-149.211-2.292-301.056 88.308-412.477 9.947 12.19 20.529 23.942 31.695 35.060 180.76 180.809 474.307 180.809 655.116 0 11.166-11.166 21.748-22.918 31.744-35.157zM780.191 560.763c0 148.041-120.149 268.19-268.19 268.19s-268.19-120.149-268.19-268.19c0-148.041 120.149-268.19 268.19-268.19s268.19 120.149 268.19 268.19zM731.321 560.763c0-121.043-98.277-219.32-219.32-219.32s-219.32 98.277-219.32 219.32c0 121.043 98.277 219.32 219.32 219.32s219.32-98.277 219.32-219.32z" />
<glyph unicode="&#xe93b;" glyph-name="hs-coming" d="M975.238 926.476v-926.476h-658.286c-13.458 0-24.381-10.923-24.381-24.381s10.923-24.381 24.381-24.381h682.667c13.458 0 24.381 10.923 24.381 24.381v975.238c0 13.458-10.923 24.381-24.381 24.381h-682.667c-13.458 0-24.381-10.923-24.381-24.381s10.923-24.381 24.381-24.381h658.286zM821.394 480.89c0.146-0.146 0.293-0.293 0.439-0.39 4.73-4.779 7.119-11.020 7.119-17.262s-2.389-12.483-7.119-17.262l-243.81-243.81c-9.557-9.509-24.966-9.509-34.523 0-9.509 9.557-9.509 24.966 0 34.523l202.216 202.167h-721.335c-13.458 0-24.381 10.923-24.381 24.381s10.923 24.381 24.381 24.381h721.335l-202.216 202.167c-9.509 9.557-9.509 24.966 0 34.523 9.557 9.509 24.966 9.509 34.523 0l243.371-243.419z" />
<glyph unicode="&#xe93c;" glyph-name="hs-goes" d="M975.238 926.476v-926.476h-658.286c-13.458 0-24.381-10.923-24.381-24.381s10.923-24.381 24.381-24.381h682.667c13.458 0 24.381 10.923 24.381 24.381v975.238c0 13.458-10.923 24.381-24.381 24.381h-682.667c-13.458 0-24.381-10.923-24.381-24.381s10.923-24.381 24.381-24.381h658.286zM7.558 480.89c-0.146-0.146-0.293-0.293-0.439-0.39-4.73-4.779-7.119-11.020-7.119-17.262s2.389-12.483 7.119-17.262l243.81-243.81c9.557-9.509 24.966-9.509 34.523 0 9.509 9.557 9.509 24.966 0 34.523l-202.216 202.167h721.335c13.458 0 24.381 10.923 24.381 24.381s-10.923 24.381-24.381 24.381h-721.335l202.216 202.167c9.509 9.557 9.509 24.966 0 34.523-9.557 9.509-24.966 9.509-34.523 0l-243.371-243.419z" />
<glyph unicode="&#xe93d;" glyph-name="hs-balance" d="M392.533 877.714c11.313 55.637 60.514 97.524 119.467 97.524s108.154-41.886 119.467-97.524h221.867c13.458 0 24.381-10.923 24.381-24.381s-10.923-24.381-24.332-24.381v-95.866c0-0.488 0-0.926-0.049-1.414 2.341-1.902 4.34-4.242 5.949-6.973l161.353-279.406c2.877-5.022 3.852-10.63 3.17-15.945-2.389-48.323-22.626-94.159-56.905-128.439-76.117-76.117-199.729-76.117-275.846 0-34.231 34.231-54.467 79.921-56.905 128.146-0.78 5.413 0.195 11.118 3.121 16.238l161.353 279.406c1.609 2.779 3.657 5.12 5.998 7.022-0.049 0.439-0.049 0.878-0.049 1.365v95.866h-173.105c-9.704-47.738-47.348-85.382-95.086-95.086v-733.867h219.77c13.263 0 24.040-10.776 24.040-24.040 0-13.214-10.776-23.991-24.040-23.991h-488.302c-13.263 0-24.040 10.776-24.040 23.991 0 13.263 10.776 24.040 24.040 24.040h219.77v733.867c-47.738 9.704-85.382 47.348-95.086 95.086h-173.056v-95.866c0-0.488 0-0.926-0.049-1.414 2.341-1.902 4.34-4.242 5.949-6.973l161.353-279.406c2.877-5.022 3.852-10.63 3.17-15.945-2.389-48.323-22.626-94.159-56.905-128.439-76.117-76.117-199.729-76.117-275.846 0-34.231 34.231-54.467 79.921-56.905 128.146-0.78 5.413 0.195 11.118 3.121 16.238l161.353 279.406c1.609 2.779 3.657 5.12 5.998 7.022-0.049 0.439-0.049 0.878-0.049 1.365v95.866c-13.458 0-24.381 10.923-24.381 24.381s10.923 24.381 24.381 24.381h221.867zM974.507 424.033l-145.554 252.099-145.506-252.050c3.365-33.451 18.188-64.805 42.082-88.698 57.1-57.1 149.797-57.1 206.897 0 23.893 23.893 38.668 55.247 42.082 88.649zM340.602 424.033l-145.554 252.099-145.506-252.050c3.365-33.451 18.188-64.805 42.082-88.698 57.1-57.1 149.797-57.1 206.897 0 23.893 23.893 38.668 55.247 42.082 88.649zM581.193 828.952c-10.045-28.526-37.254-48.957-69.193-48.957s-59.148 20.431-69.193 48.957h138.386zM581.193 877.714h-138.386c10.045 28.526 37.254 48.957 69.193 48.957s59.148-20.431 69.193-48.957z" />
<glyph unicode="&#xe93e;" glyph-name="hs-search" d="M731.38 209.384l251.026-251.026c9.509-9.509 24.966-9.509 34.475 0s9.509 24.966 0 34.475l-251.026 251.026c69.583 77.629 111.86 180.175 111.86 292.523 0 242.2-196.657 438.857-438.857 438.857s-438.857-196.657-438.857-438.857c0-242.2 196.657-438.857 438.857-438.857 112.347 0 214.894 42.277 292.523 111.86zM438.857 926.33c215.235 0 389.949-174.714 389.949-389.949s-174.714-389.949-389.949-389.949c-215.235 0-389.949 174.714-389.949 389.949s174.714 389.949 389.949 389.949z" />
<glyph unicode="&#xe93f;" glyph-name="hs-coffee" d="M1023.661-24.381c0-13.458-10.923-24.381-24.381-24.381h-974.897c-13.458 0-24.381 10.923-24.381 24.381s10.923 24.381 24.381 24.381h974.897c13.458 0 24.381-10.923 24.381-24.381zM779.851 219.428c0-32.329-12.824-63.342-35.694-86.211s-53.882-35.694-86.211-35.694c0 0-487.619 0-487.619 0-32.329 0-63.342 12.824-86.211 35.694s-35.694 53.882-35.694 86.211v731.429c0 13.458 10.923 24.381 24.381 24.381h682.667c13.458 0 24.381-10.923 24.381-24.381v-73.143c0 0 24.381 0 24.381 0 58.173 0 114.005-23.113 155.16-64.268 85.626-85.626 85.626-224.695 0-310.321-41.155-41.155-96.987-64.268-155.16-64.268h-24.381c0 0 0-219.429 0-219.429zM731.090 926.476h-633.905v-707.048c0-0.634-0.049-1.268-0.098-1.902 0.536-18.725 8.143-36.62 21.455-49.883 13.263-13.312 31.159-20.919 49.883-21.455 0.634 0.049 1.268 0.098 1.902 0.098h487.619c0.634 0 1.268-0.049 1.902-0.098 18.725 0.536 36.62 8.143 49.883 21.455 13.312 13.263 20.919 31.159 21.455 49.883-0.049 0.634-0.098 1.268-0.098 1.902v707.048zM806.914 829.099c-0.878-0.098-1.804-0.146-2.682-0.146h-24.381v-341.333h24.381c0.878 0 1.804-0.049 2.682-0.146 44.325 0.683 86.699 18.627 118.101 50.030 66.706 66.658 66.706 174.909 0 241.566-31.403 31.403-73.777 49.347-118.101 50.030z" />
<glyph unicode="&#xe940;" glyph-name="hs-user" d="M3.852-19.261c16.286 100.352 63.683 193.829 136.533 266.63 63.244 63.244 142.092 107.325 227.523 128.536-28.867 14.726-56.027 34.133-80.165 58.319-123.709 123.709-123.709 324.559 0 448.219 61.879 61.879 143.019 92.794 224.158 92.794s162.28-30.915 224.158-92.794c123.709-123.66 123.709-324.51 0-448.219-24.137-24.186-51.298-43.593-80.165-58.319 85.431-21.211 164.279-65.292 227.523-128.536 72.802-72.802 120.198-166.181 136.485-266.533 0.39-1.658 0.585-3.413 0.585-5.218 0-13.458-10.923-24.381-24.381-24.381-12.532 0-22.821 9.411-24.235 21.553-14.677 90.405-57.344 174.616-122.88 240.152-81.92 81.92-192.902 128.098-308.76 128.536h-56.661c-115.858-0.439-226.84-46.616-308.76-128.536-65.536-65.536-108.203-149.699-122.88-240.006-1.365-12.19-11.703-21.699-24.235-21.699-13.458 0-24.381 10.923-24.381 24.381 0 1.755 0.195 3.462 0.536 5.12zM511.902 926.525c-68.657 0-137.314-26.136-189.635-78.507-104.692-104.692-104.692-274.676 0-379.368 51.249-51.249 118.199-77.434 185.49-78.458h8.29c67.243 1.024 134.242 27.209 185.49 78.458 104.692 104.692 104.692 274.676 0 379.368-52.322 52.37-120.978 78.507-189.635 78.507z" />
</font>
</defs>
</svg>
