<?xml version="1.0" encoding="UTF-8" standalone="no"?><!DOCTYPE svg PUBLIC "-//W3C//DTD SVG 1.1//EN" "http://www.w3.org/Graphics/SVG/1.1/DTD/svg11.dtd"><svg width="100%" height="100%" viewBox="0 0 141 141" version="1.1" xmlns="http://www.w3.org/2000/svg" xmlns:xlink="http://www.w3.org/1999/xlink" xml:space="preserve" xmlns:serif="http://www.serif.com/" style="fill-rule:evenodd;clip-rule:evenodd;stroke-linejoin:round;stroke-miterlimit:1.41421;"><path d="M138.806,54.087c-3.269,-0.455 -6.047,-0.391 -9.394,0.666c-5.385,1.797 -8.976,4.819 -13.7,10.111c-7.179,8.975 -10.77,17.951 -13.7,29.195l0,-39.872c0,-6.047 -3.402,-8.976 -8.977,-10.109c-8.221,-1.512 -16.156,3.966 -20.879,10.109c-4.158,5.385 -6.521,8.976 -8.977,16.063l0,-47.62c0,-5.386 -5.292,-9.543 -10.677,-9.543c-5.385,0 -8.976,3.591 -10.203,7.18c-2.931,9.545 -4.157,17.859 -12.472,24.378c-8.823,7.614 -14.197,8.292 -27.921,9.48c-1.233,5.214 -1.906,10.644 -1.906,16.232c0,5.056 0.546,9.984 1.559,14.737c23.076,-2.039 30.756,-14.005 40.172,-42.813l0,55.935c1.795,14.833 19.652,15.401 21.448,0c3.589,-20.218 4.819,-24.377 13.796,-35.714l0,51.115c0,15.402 18.063,15.721 22.658,-0.059c8.267,-23.581 16.557,-25.992 39.497,-28.34c1.032,-4.793 1.588,-9.761 1.588,-14.861c0,-5.604 -0.675,-11.046 -1.912,-16.27" style="fill:#fff;fill-rule:nonzero;"/><path d="M42.299,20.267c1.227,-3.589 4.817,-7.18 10.203,-7.18c5.385,0 10.677,4.158 10.677,9.543l0,47.62c2.456,-7.087 4.819,-10.677 8.976,-16.063c4.724,-6.143 12.659,-11.621 20.88,-10.108c5.575,1.132 8.977,4.061 8.977,10.108l0,39.872c2.93,-11.244 6.52,-20.22 13.7,-29.194c4.724,-5.292 8.315,-8.315 13.7,-10.112c3.347,-1.056 6.125,-1.121 9.394,-0.666c-7.344,-31.01 -35.191,-54.087 -68.447,-54.087c-33.27,0 -61.124,23.096 -68.454,54.125c13.725,-1.188 19.099,-1.866 27.922,-9.48c8.315,-6.519 9.541,-14.833 12.472,-24.378" style="fill:#f60;fill-rule:nonzero;"/><path d="M99.633,113.558c-4.595,15.78 -22.658,15.461 -22.658,0.06l0,-51.116c-8.977,11.337 -10.207,15.496 -13.796,35.714c-1.796,15.402 -19.653,14.833 -21.448,0l0,-55.934c-9.416,28.807 -17.096,40.773 -40.172,42.812c6.776,31.781 34.998,55.621 68.8,55.621c33.758,0 61.951,-23.777 68.771,-55.497c-22.94,2.348 -31.23,4.759 -39.497,28.34" style="fill:#f60;fill-rule:nonzero;"/></svg>